<?xml version="1.0" encoding="UTF-8" standalone="no"?>
<!DOCTYPE svg PUBLIC "-//W3C//DTD SVG 1.1//EN"
 "http://www.w3.org/Graphics/SVG/1.1/DTD/svg11.dtd">
<!-- Generated by graphviz version 12.2.1 (20250203.1708)
 -->
<!-- Title: snakemake_dag Pages: 1 -->
<svg width="1258pt" height="1484pt"
 viewBox="0.00 0.00 1258.12 1484.00" xmlns="http://www.w3.org/2000/svg" xmlns:xlink="http://www.w3.org/1999/xlink">
<g id="graph0" class="graph" transform="scale(1 1) rotate(0) translate(4 1480)">
<title>snakemake_dag</title>
<polygon fill="white" stroke="none" points="-4,4 -4,-1480 1254.12,-1480 1254.12,4 -4,4"/>
<!-- 0 -->
<g id="node1" class="node">
<title>0</title>
<path fill="none" stroke="#d87556" stroke-width="2" stroke-dasharray="5,2" d="M686.25,-36C686.25,-36 656.25,-36 656.25,-36 650.25,-36 644.25,-30 644.25,-24 644.25,-24 644.25,-12 644.25,-12 644.25,-6 650.25,0 656.25,0 656.25,0 686.25,0 686.25,0 692.25,0 698.25,-6 698.25,-12 698.25,-12 698.25,-24 698.25,-24 698.25,-30 692.25,-36 686.25,-36"/>
<text text-anchor="middle" x="671.25" y="-14.88" font-family="sans" font-size="10.00">all</text>
</g>
<!-- 1 -->
<g id="node2" class="node">
<title>1</title>
<path fill="none" stroke="#d8a456" stroke-width="2" stroke-dasharray="5,2" d="M631.25,-108C631.25,-108 489.25,-108 489.25,-108 483.25,-108 477.25,-102 477.25,-96 477.25,-96 477.25,-84 477.25,-84 477.25,-78 483.25,-72 489.25,-72 489.25,-72 631.25,-72 631.25,-72 637.25,-72 643.25,-78 643.25,-84 643.25,-84 643.25,-96 643.25,-96 643.25,-102 637.25,-108 631.25,-108"/>
<text text-anchor="middle" x="560.25" y="-86.88" font-family="sans" font-size="10.00">extract_secretome_genes_gff3</text>
</g>
<!-- 1&#45;&gt;0 -->
<g id="edge1" class="edge">
<title>1&#45;&gt;0</title>
<path fill="none" stroke="grey" stroke-width="2" d="M588.55,-71.15C601.96,-62.7 618.18,-52.47 632.7,-43.31"/>
<polygon fill="grey" stroke="grey" stroke-width="2" points="634.24,-46.48 640.83,-38.18 630.5,-40.56 634.24,-46.48"/>
</g>
<!-- 2 -->
<g id="node3" class="node">
<title>2</title>
<path fill="none" stroke="#97d856" stroke-width="2" stroke-dasharray="5,2" d="M708.62,-540C708.62,-540 463.88,-540 463.88,-540 457.88,-540 451.88,-534 451.88,-528 451.88,-528 451.88,-516 451.88,-516 451.88,-510 457.88,-504 463.88,-504 463.88,-504 708.62,-504 708.62,-504 714.62,-504 720.62,-510 720.62,-516 720.62,-516 720.62,-528 720.62,-528 720.62,-534 714.62,-540 708.62,-540"/>
<text text-anchor="middle" x="586.25" y="-518.88" font-family="sans" font-size="10.00">get_protein_and_cds_sequences_from_merged_gff3</text>
</g>
<!-- 2&#45;&gt;1 -->
<g id="edge3" class="edge">
<title>2&#45;&gt;1</title>
<path fill="none" stroke="grey" stroke-width="2" d="M527.23,-503.1C508.04,-494.91 487.93,-483.5 473.25,-468 443.91,-437.02 437.25,-421.67 437.25,-379 437.25,-379 437.25,-379 437.25,-233 437.25,-192.55 431.61,-176.08 456.25,-144 465.6,-131.82 478.53,-122.21 492.1,-114.71"/>
<polygon fill="grey" stroke="grey" stroke-width="2" points="493.54,-117.9 500.88,-110.26 490.38,-111.66 493.54,-117.9"/>
</g>
<!-- 30 -->
<g id="node31" class="node">
<title>30</title>
<path fill="none" stroke="#56d8b9" stroke-width="2" stroke-dasharray="5,2" d="M602.88,-468C602.88,-468 569.62,-468 569.62,-468 563.62,-468 557.62,-462 557.62,-456 557.62,-456 557.62,-444 557.62,-444 557.62,-438 563.62,-432 569.62,-432 569.62,-432 602.88,-432 602.88,-432 608.88,-432 614.88,-438 614.88,-444 614.88,-444 614.88,-456 614.88,-456 614.88,-462 608.88,-468 602.88,-468"/>
<text text-anchor="middle" x="586.25" y="-446.88" font-family="sans" font-size="10.00">signalp3</text>
</g>
<!-- 2&#45;&gt;30 -->
<g id="edge60" class="edge">
<title>2&#45;&gt;30</title>
<path fill="none" stroke="grey" stroke-width="2" d="M586.25,-503.34C586.25,-496.75 586.25,-489.08 586.25,-481.67"/>
<polygon fill="grey" stroke="grey" stroke-width="2" points="589.75,-481.93 586.25,-471.93 582.75,-481.93 589.75,-481.93"/>
</g>
<!-- 31 -->
<g id="node32" class="node">
<title>31</title>
<path fill="none" stroke="#56d8d8" stroke-width="2" stroke-dasharray="5,2" d="M677.88,-468C677.88,-468 644.62,-468 644.62,-468 638.62,-468 632.62,-462 632.62,-456 632.62,-456 632.62,-444 632.62,-444 632.62,-438 638.62,-432 644.62,-432 644.62,-432 677.88,-432 677.88,-432 683.88,-432 689.88,-438 689.88,-444 689.88,-444 689.88,-456 689.88,-456 689.88,-462 683.88,-468 677.88,-468"/>
<text text-anchor="middle" x="661.25" y="-446.88" font-family="sans" font-size="10.00">signalp4</text>
</g>
<!-- 2&#45;&gt;31 -->
<g id="edge61" class="edge">
<title>2&#45;&gt;31</title>
<path fill="none" stroke="grey" stroke-width="2" d="M605.18,-503.34C613.55,-495.52 623.58,-486.16 632.82,-477.53"/>
<polygon fill="grey" stroke="grey" stroke-width="2" points="634.93,-480.35 639.86,-470.97 630.16,-475.23 634.93,-480.35"/>
</g>
<!-- 32 -->
<g id="node33" class="node">
<title>32</title>
<path fill="none" stroke="#d88556" stroke-width="2" stroke-dasharray="5,2" d="M527.88,-468C527.88,-468 494.62,-468 494.62,-468 488.62,-468 482.62,-462 482.62,-456 482.62,-456 482.62,-444 482.62,-444 482.62,-438 488.62,-432 494.62,-432 494.62,-432 527.88,-432 527.88,-432 533.88,-432 539.88,-438 539.88,-444 539.88,-444 539.88,-456 539.88,-456 539.88,-462 533.88,-468 527.88,-468"/>
<text text-anchor="middle" x="511.25" y="-446.88" font-family="sans" font-size="10.00">signalp6</text>
</g>
<!-- 2&#45;&gt;32 -->
<g id="edge62" class="edge">
<title>2&#45;&gt;32</title>
<path fill="none" stroke="grey" stroke-width="2" d="M567.32,-503.34C558.95,-495.52 548.92,-486.16 539.68,-477.53"/>
<polygon fill="grey" stroke="grey" stroke-width="2" points="542.34,-475.23 532.64,-470.97 537.57,-480.35 542.34,-475.23"/>
</g>
<!-- 34 -->
<g id="node35" class="node">
<title>34</title>
<path fill="none" stroke="#c6d856" stroke-width="2" stroke-dasharray="5,2" d="M820.75,-396C820.75,-396 729.75,-396 729.75,-396 723.75,-396 717.75,-390 717.75,-384 717.75,-384 717.75,-372 717.75,-372 717.75,-366 723.75,-360 729.75,-360 729.75,-360 820.75,-360 820.75,-360 826.75,-360 832.75,-366 832.75,-372 832.75,-372 832.75,-384 832.75,-384 832.75,-390 826.75,-396 820.75,-396"/>
<text text-anchor="middle" x="775.25" y="-374.88" font-family="sans" font-size="10.00">copy_all_genes_gff3</text>
</g>
<!-- 2&#45;&gt;34 -->
<g id="edge64" class="edge">
<title>2&#45;&gt;34</title>
<path fill="none" stroke="grey" stroke-width="2" d="M636.09,-503.05C656.76,-494.27 680.29,-482.45 699.25,-468 721.67,-450.91 742.12,-426.2 756.14,-407.15"/>
<polygon fill="grey" stroke="grey" stroke-width="2" points="758.89,-409.32 761.86,-399.15 753.2,-405.25 758.89,-409.32"/>
</g>
<!-- 3 -->
<g id="node4" class="node">
<title>3</title>
<path fill="none" stroke="#a7d856" stroke-width="2" stroke-dasharray="5,2" d="M705.88,-1476C705.88,-1476 630.62,-1476 630.62,-1476 624.62,-1476 618.62,-1470 618.62,-1464 618.62,-1464 618.62,-1452 618.62,-1452 618.62,-1446 624.62,-1440 630.62,-1440 630.62,-1440 705.88,-1440 705.88,-1440 711.88,-1440 717.88,-1446 717.88,-1452 717.88,-1452 717.88,-1464 717.88,-1464 717.88,-1470 711.88,-1476 705.88,-1476"/>
<text text-anchor="middle" x="668.25" y="-1454.88" font-family="sans" font-size="10.00">funannotate_sort</text>
</g>
<!-- 3&#45;&gt;2 -->
<g id="edge5" class="edge">
<title>3&#45;&gt;2</title>
<path fill="none" stroke="grey" stroke-width="2" d="M655.88,-1439.09C639.12,-1413.03 611.25,-1362.55 611.25,-1315 611.25,-1315 611.25,-1315 611.25,-1025 611.25,-926.57 668.25,-909.43 668.25,-811 668.25,-811 668.25,-811 668.25,-665 668.25,-620.32 637.43,-577.05 613.58,-550.26"/>
<polygon fill="grey" stroke="grey" stroke-width="2" points="616.27,-548.01 606.91,-543.05 611.13,-552.77 616.27,-548.01"/>
</g>
<!-- 5 -->
<g id="node6" class="node">
<title>5</title>
<path fill="none" stroke="#56c1d8" stroke-width="2" stroke-dasharray="5,2" d="M628.5,-684C628.5,-684 380,-684 380,-684 374,-684 368,-678 368,-672 368,-672 368,-660 368,-660 368,-654 374,-648 380,-648 380,-648 628.5,-648 628.5,-648 634.5,-648 640.5,-654 640.5,-660 640.5,-660 640.5,-672 640.5,-672 640.5,-678 634.5,-684 628.5,-684"/>
<text text-anchor="middle" x="504.25" y="-662.88" font-family="sans" font-size="10.00">merge_transdecoder_SP_gff3_with_funannotate_gff3</text>
</g>
<!-- 3&#45;&gt;5 -->
<g id="edge8" class="edge">
<title>3&#45;&gt;5</title>
<path fill="none" stroke="grey" stroke-width="2" d="M635.31,-1439.09C621.73,-1430.18 606.93,-1418.25 597.25,-1404 574.24,-1370.11 573.25,-1355.97 573.25,-1315 573.25,-1315 573.25,-1315 573.25,-809 573.25,-768.55 573.05,-755.81 554.25,-720 549.33,-710.63 542.29,-701.72 535.03,-693.98"/>
<polygon fill="grey" stroke="grey" stroke-width="2" points="537.57,-691.56 528.02,-686.98 532.62,-696.52 537.57,-691.56"/>
</g>
<!-- 6 -->
<g id="node7" class="node">
<title>6</title>
<path fill="none" stroke="#d8ac56" stroke-width="2" stroke-dasharray="5,2" d="M863.38,-1260C863.38,-1260 773.12,-1260 773.12,-1260 767.12,-1260 761.12,-1254 761.12,-1248 761.12,-1248 761.12,-1236 761.12,-1236 761.12,-1230 767.12,-1224 773.12,-1224 773.12,-1224 863.38,-1224 863.38,-1224 869.38,-1224 875.38,-1230 875.38,-1236 875.38,-1236 875.38,-1248 875.38,-1248 875.38,-1254 869.38,-1260 863.38,-1260"/>
<text text-anchor="middle" x="818.25" y="-1238.88" font-family="sans" font-size="10.00">funannotate_update</text>
</g>
<!-- 3&#45;&gt;6 -->
<g id="edge11" class="edge">
<title>3&#45;&gt;6</title>
<path fill="none" stroke="grey" stroke-width="2" d="M666.64,-1439.21C665.74,-1420.44 666.62,-1390.52 678.25,-1368 700.49,-1324.96 744.13,-1289.74 776.8,-1267.79"/>
<polygon fill="grey" stroke="grey" stroke-width="2" points="778.42,-1270.91 784.88,-1262.51 774.59,-1265.05 778.42,-1270.91"/>
</g>
<!-- 8 -->
<g id="node9" class="node">
<title>8</title>
<path fill="none" stroke="#56d8a9" stroke-width="2" stroke-dasharray="5,2" d="M984.38,-1332C984.38,-1332 894.12,-1332 894.12,-1332 888.12,-1332 882.12,-1326 882.12,-1320 882.12,-1320 882.12,-1308 882.12,-1308 882.12,-1302 888.12,-1296 894.12,-1296 894.12,-1296 984.38,-1296 984.38,-1296 990.38,-1296 996.38,-1302 996.38,-1308 996.38,-1308 996.38,-1320 996.38,-1320 996.38,-1326 990.38,-1332 984.38,-1332"/>
<text text-anchor="middle" x="939.25" y="-1310.88" font-family="sans" font-size="10.00">funannotate_predict</text>
</g>
<!-- 3&#45;&gt;8 -->
<g id="edge14" class="edge">
<title>3&#45;&gt;8</title>
<path fill="none" stroke="grey" stroke-width="2" d="M670.95,-1439.09C674.99,-1418.76 684.58,-1386.09 706.25,-1368 730.66,-1347.63 809.34,-1332.66 868.58,-1323.92"/>
<polygon fill="grey" stroke="grey" stroke-width="2" points="868.87,-1327.41 878.27,-1322.52 867.88,-1320.48 868.87,-1327.41"/>
</g>
<!-- 9 -->
<g id="node10" class="node">
<title>9</title>
<path fill="none" stroke="#56b1d8" stroke-width="2" stroke-dasharray="5,2" d="M1160.75,-1404C1160.75,-1404 1081.75,-1404 1081.75,-1404 1075.75,-1404 1069.75,-1398 1069.75,-1392 1069.75,-1392 1069.75,-1380 1069.75,-1380 1069.75,-1374 1075.75,-1368 1081.75,-1368 1081.75,-1368 1160.75,-1368 1160.75,-1368 1166.75,-1368 1172.75,-1374 1172.75,-1380 1172.75,-1380 1172.75,-1392 1172.75,-1392 1172.75,-1398 1166.75,-1404 1160.75,-1404"/>
<text text-anchor="middle" x="1121.25" y="-1382.88" font-family="sans" font-size="10.00">funannotate_train</text>
</g>
<!-- 3&#45;&gt;9 -->
<g id="edge20" class="edge">
<title>3&#45;&gt;9</title>
<path fill="none" stroke="grey" stroke-width="2" d="M718.72,-1449.79C787.44,-1439.9 914.26,-1421.35 1022.25,-1404 1033.26,-1402.23 1044.94,-1400.29 1056.28,-1398.36"/>
<polygon fill="grey" stroke="grey" stroke-width="2" points="1056.63,-1401.85 1065.89,-1396.72 1055.45,-1394.95 1056.63,-1401.85"/>
</g>
<!-- 10 -->
<g id="node11" class="node">
<title>10</title>
<path fill="none" stroke="#56d87b" stroke-width="2" stroke-dasharray="5,2" d="M1001.25,-1404C1001.25,-1404 877.25,-1404 877.25,-1404 871.25,-1404 865.25,-1398 865.25,-1392 865.25,-1392 865.25,-1380 865.25,-1380 865.25,-1374 871.25,-1368 877.25,-1368 877.25,-1368 1001.25,-1368 1001.25,-1368 1007.25,-1368 1013.25,-1374 1013.25,-1380 1013.25,-1380 1013.25,-1392 1013.25,-1392 1013.25,-1398 1007.25,-1404 1001.25,-1404"/>
<text text-anchor="middle" x="939.25" y="-1382.88" font-family="sans" font-size="10.00">codingquarryPM_infections</text>
</g>
<!-- 3&#45;&gt;10 -->
<g id="edge22" class="edge">
<title>3&#45;&gt;10</title>
<path fill="none" stroke="grey" stroke-width="2" d="M718.59,-1444C757.48,-1433.95 812.13,-1419.84 857.3,-1408.17"/>
<polygon fill="grey" stroke="grey" stroke-width="2" points="858.03,-1411.59 866.84,-1405.7 856.28,-1404.82 858.03,-1411.59"/>
</g>
<!-- 12 -->
<g id="node13" class="node">
<title>12</title>
<path fill="none" stroke="#56d0d8" stroke-width="2" stroke-dasharray="5,2" d="M835.38,-1404C835.38,-1404 727.12,-1404 727.12,-1404 721.12,-1404 715.12,-1398 715.12,-1392 715.12,-1392 715.12,-1380 715.12,-1380 715.12,-1374 721.12,-1368 727.12,-1368 727.12,-1368 835.38,-1368 835.38,-1368 841.38,-1368 847.38,-1374 847.38,-1380 847.38,-1380 847.38,-1392 847.38,-1392 847.38,-1398 841.38,-1404 835.38,-1404"/>
<text text-anchor="middle" x="781.25" y="-1382.88" font-family="sans" font-size="10.00">codingquarryPM_spores</text>
</g>
<!-- 3&#45;&gt;12 -->
<g id="edge24" class="edge">
<title>3&#45;&gt;12</title>
<path fill="none" stroke="grey" stroke-width="2" d="M697.06,-1439.15C710.6,-1430.76 726.97,-1420.62 741.66,-1411.52"/>
<polygon fill="grey" stroke="grey" stroke-width="2" points="743.26,-1414.65 749.92,-1406.41 739.58,-1408.7 743.26,-1414.65"/>
</g>
<!-- 16 -->
<g id="node17" class="node">
<title>16</title>
<path fill="none" stroke="#56d88a" stroke-width="2" stroke-dasharray="5,2" d="M532.88,-1404C532.88,-1404 313.62,-1404 313.62,-1404 307.62,-1404 301.62,-1398 301.62,-1392 301.62,-1392 301.62,-1380 301.62,-1380 301.62,-1374 307.62,-1368 313.62,-1368 313.62,-1368 532.88,-1368 532.88,-1368 538.88,-1368 544.88,-1374 544.88,-1380 544.88,-1380 544.88,-1392 544.88,-1392 544.88,-1398 538.88,-1404 532.88,-1404"/>
<text text-anchor="middle" x="423.25" y="-1382.88" font-family="sans" font-size="10.00">transdecoder_preprocess_infection_transcripts</text>
</g>
<!-- 3&#45;&gt;16 -->
<g id="edge31" class="edge">
<title>3&#45;&gt;16</title>
<path fill="none" stroke="grey" stroke-width="2" d="M617.78,-1442.58C583.28,-1432.72 536.94,-1419.48 498.15,-1408.4"/>
<polygon fill="grey" stroke="grey" stroke-width="2" points="499.33,-1405.1 488.75,-1405.72 497.41,-1411.83 499.33,-1405.1"/>
</g>
<!-- 4 -->
<g id="node5" class="node">
<title>4</title>
<path fill="none" stroke="#56d8c9" stroke-width="2" stroke-dasharray="5,2" d="M590.62,-612C590.62,-612 495.88,-612 495.88,-612 489.88,-612 483.88,-606 483.88,-600 483.88,-600 483.88,-588 483.88,-588 483.88,-582 489.88,-576 495.88,-576 495.88,-576 590.62,-576 590.62,-576 596.62,-576 602.62,-582 602.62,-588 602.62,-588 602.62,-600 602.62,-600 602.62,-606 596.62,-612 590.62,-612"/>
<text text-anchor="middle" x="543.25" y="-590.88" font-family="sans" font-size="10.00">deduplicate_cds_gff3</text>
</g>
<!-- 4&#45;&gt;2 -->
<g id="edge6" class="edge">
<title>4&#45;&gt;2</title>
<path fill="none" stroke="grey" stroke-width="2" d="M554.1,-575.34C558.5,-568.18 563.69,-559.73 568.6,-551.73"/>
<polygon fill="grey" stroke="grey" stroke-width="2" points="571.42,-553.83 573.67,-543.48 565.45,-550.17 571.42,-553.83"/>
</g>
<!-- 5&#45;&gt;4 -->
<g id="edge7" class="edge">
<title>5&#45;&gt;4</title>
<path fill="none" stroke="grey" stroke-width="2" d="M514.09,-647.34C517.99,-640.34 522.57,-632.12 526.94,-624.28"/>
<polygon fill="grey" stroke="grey" stroke-width="2" points="529.99,-625.99 531.8,-615.55 523.88,-622.58 529.99,-625.99"/>
</g>
<!-- 6&#45;&gt;5 -->
<g id="edge9" class="edge">
<title>6&#45;&gt;5</title>
<path fill="none" stroke="grey" stroke-width="2" d="M767.54,-1223.13C717.76,-1201.95 649.25,-1161.47 649.25,-1099 649.25,-1099 649.25,-1099 649.25,-1025 649.25,-886.67 665.53,-834.05 587.25,-720 579.48,-708.68 568.41,-699.24 556.88,-691.62"/>
<polygon fill="grey" stroke="grey" stroke-width="2" points="558.73,-688.65 548.37,-686.45 555.09,-694.63 558.73,-688.65"/>
</g>
<!-- 7 -->
<g id="node8" class="node">
<title>7</title>
<path fill="none" stroke="#5673d8" stroke-width="2" stroke-dasharray="5,2" d="M1238.12,-1476C1238.12,-1476 1164.38,-1476 1164.38,-1476 1158.38,-1476 1152.38,-1470 1152.38,-1464 1152.38,-1464 1152.38,-1452 1152.38,-1452 1152.38,-1446 1158.38,-1440 1164.38,-1440 1164.38,-1440 1238.12,-1440 1238.12,-1440 1244.12,-1440 1250.12,-1446 1250.12,-1452 1250.12,-1452 1250.12,-1464 1250.12,-1464 1250.12,-1470 1244.12,-1476 1238.12,-1476"/>
<text text-anchor="middle" x="1201.25" y="-1454.88" font-family="sans" font-size="10.00">chopper_filtering</text>
</g>
<!-- 7&#45;&gt;6 -->
<g id="edge12" class="edge">
<title>7&#45;&gt;6</title>
<path fill="none" stroke="grey" stroke-width="2" d="M1207.97,-1439.17C1214.02,-1419.82 1219.92,-1388.88 1205.25,-1368 1168.46,-1315.65 989.77,-1274.77 888.56,-1255.36"/>
<polygon fill="grey" stroke="grey" stroke-width="2" points="889.47,-1251.97 878.99,-1253.55 888.17,-1258.85 889.47,-1251.97"/>
</g>
<!-- 7&#45;&gt;8 -->
<g id="edge15" class="edge">
<title>7&#45;&gt;8</title>
<path fill="none" stroke="grey" stroke-width="2" d="M1202.7,-1439.35C1203.31,-1419.26 1200.98,-1386.81 1182.25,-1368 1158.38,-1344.02 1072.68,-1329.54 1009.79,-1321.91"/>
<polygon fill="grey" stroke="grey" stroke-width="2" points="1010.49,-1318.47 1000.15,-1320.79 1009.68,-1325.43 1010.49,-1318.47"/>
</g>
<!-- 7&#45;&gt;9 -->
<g id="edge21" class="edge">
<title>7&#45;&gt;9</title>
<path fill="none" stroke="grey" stroke-width="2" d="M1181.06,-1439.34C1172.04,-1431.44 1161.21,-1421.96 1151.26,-1413.26"/>
<polygon fill="grey" stroke="grey" stroke-width="2" points="1153.82,-1410.85 1143.99,-1406.9 1149.21,-1416.11 1153.82,-1410.85"/>
</g>
<!-- 8&#45;&gt;6 -->
<g id="edge13" class="edge">
<title>8&#45;&gt;6</title>
<path fill="none" stroke="grey" stroke-width="2" d="M908.4,-1295.15C893.75,-1286.68 876.02,-1276.42 860.18,-1267.25"/>
<polygon fill="grey" stroke="grey" stroke-width="2" points="862.07,-1264.31 851.66,-1262.33 858.56,-1270.37 862.07,-1264.31"/>
</g>
<!-- 9&#45;&gt;8 -->
<g id="edge16" class="edge">
<title>9&#45;&gt;8</title>
<path fill="none" stroke="grey" stroke-width="2" d="M1074.85,-1367.15C1051.41,-1358.14 1022.72,-1347.11 997.78,-1337.51"/>
<polygon fill="grey" stroke="grey" stroke-width="2" points="999.29,-1334.34 988.7,-1334.02 996.78,-1340.88 999.29,-1334.34"/>
</g>
<!-- 10&#45;&gt;8 -->
<g id="edge17" class="edge">
<title>10&#45;&gt;8</title>
<path fill="none" stroke="grey" stroke-width="2" d="M939.25,-1367.34C939.25,-1360.75 939.25,-1353.08 939.25,-1345.67"/>
<polygon fill="grey" stroke="grey" stroke-width="2" points="942.75,-1345.93 939.25,-1335.93 935.75,-1345.93 942.75,-1345.93"/>
</g>
<!-- 11 -->
<g id="node12" class="node">
<title>11</title>
<path fill="none" stroke="#56d85b" stroke-width="2" stroke-dasharray="5,2" d="M982.5,-1476C982.5,-1476 896,-1476 896,-1476 890,-1476 884,-1470 884,-1464 884,-1464 884,-1452 884,-1452 884,-1446 890,-1440 896,-1440 896,-1440 982.5,-1440 982.5,-1440 988.5,-1440 994.5,-1446 994.5,-1452 994.5,-1452 994.5,-1464 994.5,-1464 994.5,-1470 988.5,-1476 982.5,-1476"/>
<text text-anchor="middle" x="939.25" y="-1454.88" font-family="sans" font-size="10.00">convert_gtf_to_gff3</text>
</g>
<!-- 11&#45;&gt;8 -->
<g id="edge19" class="edge">
<title>11&#45;&gt;8</title>
<path fill="none" stroke="grey" stroke-width="2" d="M984.12,-1439.14C998.99,-1430.81 1013.87,-1419.29 1022.25,-1404 1029.94,-1389.97 1029.94,-1382.03 1022.25,-1368 1015.97,-1356.53 1006.02,-1347.18 995.17,-1339.71"/>
<polygon fill="grey" stroke="grey" stroke-width="2" points="997.04,-1336.75 986.7,-1334.46 993.35,-1342.7 997.04,-1336.75"/>
</g>
<!-- 11&#45;&gt;10 -->
<g id="edge23" class="edge">
<title>11&#45;&gt;10</title>
<path fill="none" stroke="grey" stroke-width="2" d="M939.25,-1439.34C939.25,-1432.75 939.25,-1425.08 939.25,-1417.67"/>
<polygon fill="grey" stroke="grey" stroke-width="2" points="942.75,-1417.93 939.25,-1407.93 935.75,-1417.93 942.75,-1417.93"/>
</g>
<!-- 11&#45;&gt;12 -->
<g id="edge25" class="edge">
<title>11&#45;&gt;12</title>
<path fill="none" stroke="grey" stroke-width="2" d="M898.97,-1439.15C879.08,-1430.34 854.85,-1419.61 833.55,-1410.17"/>
<polygon fill="grey" stroke="grey" stroke-width="2" points="835.06,-1407.01 824.5,-1406.16 832.22,-1413.41 835.06,-1407.01"/>
</g>
<!-- 12&#45;&gt;8 -->
<g id="edge18" class="edge">
<title>12&#45;&gt;8</title>
<path fill="none" stroke="grey" stroke-width="2" d="M821.53,-1367.15C841.42,-1358.34 865.65,-1347.61 886.95,-1338.17"/>
<polygon fill="grey" stroke="grey" stroke-width="2" points="888.28,-1341.41 896,-1334.16 885.44,-1335.01 888.28,-1341.41"/>
</g>
<!-- 13 -->
<g id="node14" class="node">
<title>13</title>
<path fill="none" stroke="#78d856" stroke-width="2" stroke-dasharray="5,2" d="M533,-756C533,-756 329.5,-756 329.5,-756 323.5,-756 317.5,-750 317.5,-744 317.5,-744 317.5,-732 317.5,-732 317.5,-726 323.5,-720 329.5,-720 329.5,-720 533,-720 533,-720 539,-720 545,-726 545,-732 545,-732 545,-744 545,-744 545,-750 539,-756 533,-756"/>
<text text-anchor="middle" x="431.25" y="-734.88" font-family="sans" font-size="10.00">extract_transdecoder_SP_noTM_genes_gff3</text>
</g>
<!-- 13&#45;&gt;5 -->
<g id="edge10" class="edge">
<title>13&#45;&gt;5</title>
<path fill="none" stroke="grey" stroke-width="2" d="M449.67,-719.34C457.74,-711.6 467.38,-702.36 476.29,-693.81"/>
<polygon fill="grey" stroke="grey" stroke-width="2" points="478.6,-696.44 483.4,-687 473.76,-691.39 478.6,-696.44"/>
</g>
<!-- 14 -->
<g id="node15" class="node">
<title>14</title>
<path fill="none" stroke="#56a2d8" stroke-width="2" stroke-dasharray="5,2" d="M530.25,-1260C530.25,-1260 322.25,-1260 322.25,-1260 316.25,-1260 310.25,-1254 310.25,-1248 310.25,-1248 310.25,-1236 310.25,-1236 310.25,-1230 316.25,-1224 322.25,-1224 322.25,-1224 530.25,-1224 530.25,-1224 536.25,-1224 542.25,-1230 542.25,-1236 542.25,-1236 542.25,-1248 542.25,-1248 542.25,-1254 536.25,-1260 530.25,-1260"/>
<text text-anchor="middle" x="426.25" y="-1238.88" font-family="sans" font-size="10.00">transdecoder_generate_genome_based_gff3</text>
</g>
<!-- 14&#45;&gt;13 -->
<g id="edge26" class="edge">
<title>14&#45;&gt;13</title>
<path fill="none" stroke="grey" stroke-width="2" d="M436.22,-1223.24C450.01,-1196.96 473.25,-1145.74 473.25,-1099 473.25,-1099 473.25,-1099 473.25,-881 473.25,-840.87 457.64,-796.88 445.45,-768.67"/>
<polygon fill="grey" stroke="grey" stroke-width="2" points="448.68,-767.33 441.4,-759.64 442.3,-770.2 448.68,-767.33"/>
</g>
<!-- 21 -->
<g id="node22" class="node">
<title>21</title>
<path fill="none" stroke="#56d89a" stroke-width="2" stroke-dasharray="5,2" d="M361.5,-1188C361.5,-1188 203,-1188 203,-1188 197,-1188 191,-1182 191,-1176 191,-1176 191,-1164 191,-1164 191,-1158 197,-1152 203,-1152 203,-1152 361.5,-1152 361.5,-1152 367.5,-1152 373.5,-1158 373.5,-1164 373.5,-1164 373.5,-1176 373.5,-1176 373.5,-1182 367.5,-1188 361.5,-1188"/>
<text text-anchor="middle" x="282.25" y="-1166.88" font-family="sans" font-size="10.00">filter_transdecoder_complete_orfs</text>
</g>
<!-- 14&#45;&gt;21 -->
<g id="edge42" class="edge">
<title>14&#45;&gt;21</title>
<path fill="none" stroke="grey" stroke-width="2" d="M389.54,-1223.15C371.67,-1214.47 349.94,-1203.91 330.73,-1194.56"/>
<polygon fill="grey" stroke="grey" stroke-width="2" points="332.39,-1191.48 321.87,-1190.26 329.33,-1197.78 332.39,-1191.48"/>
</g>
<!-- 15 -->
<g id="node16" class="node">
<title>15</title>
<path fill="none" stroke="#5692d8" stroke-width="2" stroke-dasharray="5,2" d="M386.12,-1332C386.12,-1332 330.38,-1332 330.38,-1332 324.38,-1332 318.38,-1326 318.38,-1320 318.38,-1320 318.38,-1308 318.38,-1308 318.38,-1302 324.38,-1296 330.38,-1296 330.38,-1296 386.12,-1296 386.12,-1296 392.12,-1296 398.12,-1302 398.12,-1308 398.12,-1308 398.12,-1320 398.12,-1320 398.12,-1326 392.12,-1332 386.12,-1332"/>
<text text-anchor="middle" x="358.25" y="-1310.88" font-family="sans" font-size="10.00">transdecoder</text>
</g>
<!-- 15&#45;&gt;14 -->
<g id="edge28" class="edge">
<title>15&#45;&gt;14</title>
<path fill="none" stroke="grey" stroke-width="2" d="M375.41,-1295.34C382.84,-1287.69 391.71,-1278.56 399.94,-1270.08"/>
<polygon fill="grey" stroke="grey" stroke-width="2" points="402.29,-1272.68 406.75,-1263.07 397.27,-1267.81 402.29,-1272.68"/>
</g>
<!-- 15&#45;&gt;21 -->
<g id="edge41" class="edge">
<title>15&#45;&gt;21</title>
<path fill="none" stroke="grey" stroke-width="2" d="M332.69,-1295.02C321.41,-1285.79 308.98,-1273.63 301.25,-1260 291.17,-1242.24 286.43,-1219.72 284.2,-1201.78"/>
<polygon fill="grey" stroke="grey" stroke-width="2" points="287.68,-1201.45 283.22,-1191.85 280.72,-1202.14 287.68,-1201.45"/>
</g>
<!-- 16&#45;&gt;14 -->
<g id="edge29" class="edge">
<title>16&#45;&gt;14</title>
<path fill="none" stroke="grey" stroke-width="2" d="M423.63,-1367.02C424.13,-1343.54 425,-1302.11 425.6,-1273.64"/>
<polygon fill="grey" stroke="grey" stroke-width="2" points="429.1,-1273.94 425.81,-1263.86 422.1,-1273.79 429.1,-1273.94"/>
</g>
<!-- 16&#45;&gt;15 -->
<g id="edge30" class="edge">
<title>16&#45;&gt;15</title>
<path fill="none" stroke="grey" stroke-width="2" d="M406.85,-1367.34C399.82,-1359.77 391.45,-1350.75 383.65,-1342.35"/>
<polygon fill="grey" stroke="grey" stroke-width="2" points="386.3,-1340.07 376.93,-1335.12 381.17,-1344.83 386.3,-1340.07"/>
</g>
<!-- 17 -->
<g id="node18" class="node">
<title>17</title>
<path fill="none" stroke="#5663d8" stroke-width="2" stroke-dasharray="5,2" d="M420.75,-828C420.75,-828 185.75,-828 185.75,-828 179.75,-828 173.75,-822 173.75,-816 173.75,-816 173.75,-804 173.75,-804 173.75,-798 179.75,-792 185.75,-792 185.75,-792 420.75,-792 420.75,-792 426.75,-792 432.75,-798 432.75,-804 432.75,-804 432.75,-816 432.75,-816 432.75,-822 426.75,-828 420.75,-828"/>
<text text-anchor="middle" x="303.25" y="-806.88" font-family="sans" font-size="10.00">filter_transdecoder_SP_for_absence_of_TM_helice</text>
</g>
<!-- 17&#45;&gt;13 -->
<g id="edge27" class="edge">
<title>17&#45;&gt;13</title>
<path fill="none" stroke="grey" stroke-width="2" d="M335.88,-791.15C351.53,-782.6 370.5,-772.22 387.39,-762.99"/>
<polygon fill="grey" stroke="grey" stroke-width="2" points="388.93,-766.13 396.02,-758.26 385.57,-759.99 388.93,-766.13"/>
</g>
<!-- 18 -->
<g id="node19" class="node">
<title>18</title>
<path fill="none" stroke="#d85656" stroke-width="2" stroke-dasharray="5,2" d="M188.25,-900C188.25,-900 88.25,-900 88.25,-900 82.25,-900 76.25,-894 76.25,-888 76.25,-888 76.25,-876 76.25,-876 76.25,-870 82.25,-864 88.25,-864 88.25,-864 188.25,-864 188.25,-864 194.25,-864 200.25,-870 200.25,-876 200.25,-876 200.25,-888 200.25,-888 200.25,-894 194.25,-900 188.25,-900"/>
<text text-anchor="middle" x="138.25" y="-878.88" font-family="sans" font-size="10.00">tmmhm_transdecoder</text>
</g>
<!-- 18&#45;&gt;17 -->
<g id="edge32" class="edge">
<title>18&#45;&gt;17</title>
<path fill="none" stroke="grey" stroke-width="2" d="M180.31,-863.15C201.28,-854.26 226.86,-843.41 249.26,-833.91"/>
<polygon fill="grey" stroke="grey" stroke-width="2" points="250.35,-837.24 258.19,-830.12 247.62,-830.8 250.35,-837.24"/>
</g>
<!-- 19 -->
<g id="node20" class="node">
<title>19</title>
<path fill="none" stroke="#d8bc56" stroke-width="2" stroke-dasharray="5,2" d="M308.5,-972C308.5,-972 12,-972 12,-972 6,-972 0,-966 0,-960 0,-960 0,-948 0,-948 0,-942 6,-936 12,-936 12,-936 308.5,-936 308.5,-936 314.5,-936 320.5,-942 320.5,-948 320.5,-948 320.5,-960 320.5,-960 320.5,-966 314.5,-972 308.5,-972"/>
<text text-anchor="middle" x="160.25" y="-950.88" font-family="sans" font-size="10.00">combine_signalp_unions_mature_proteins_fasta_transdecoder</text>
</g>
<!-- 19&#45;&gt;18 -->
<g id="edge35" class="edge">
<title>19&#45;&gt;18</title>
<path fill="none" stroke="grey" stroke-width="2" d="M154.7,-935.34C152.58,-928.59 150.1,-920.69 147.71,-913.11"/>
<polygon fill="grey" stroke="grey" stroke-width="2" points="151.12,-912.28 144.78,-903.79 144.44,-914.38 151.12,-912.28"/>
</g>
<!-- 25 -->
<g id="node26" class="node">
<title>25</title>
<path fill="none" stroke="#70d856" stroke-width="2" stroke-dasharray="5,2" d="M329.88,-900C329.88,-900 230.62,-900 230.62,-900 224.62,-900 218.62,-894 218.62,-888 218.62,-888 218.62,-876 218.62,-876 218.62,-870 224.62,-864 230.62,-864 230.62,-864 329.88,-864 329.88,-864 335.88,-864 341.88,-870 341.88,-876 341.88,-876 341.88,-888 341.88,-888 341.88,-894 335.88,-900 329.88,-900"/>
<text text-anchor="middle" x="280.25" y="-878.88" font-family="sans" font-size="10.00">phobius_transdecoder</text>
</g>
<!-- 19&#45;&gt;25 -->
<g id="edge48" class="edge">
<title>19&#45;&gt;25</title>
<path fill="none" stroke="grey" stroke-width="2" d="M190.84,-935.15C205.37,-926.68 222.95,-916.42 238.67,-907.25"/>
<polygon fill="grey" stroke="grey" stroke-width="2" points="240.23,-910.4 247.1,-902.34 236.7,-904.35 240.23,-910.4"/>
</g>
<!-- 20 -->
<g id="node21" class="node">
<title>20</title>
<path fill="none" stroke="#d6d856" stroke-width="2" stroke-dasharray="5,2" d="M289.38,-1116C289.38,-1116 187.12,-1116 187.12,-1116 181.12,-1116 175.12,-1110 175.12,-1104 175.12,-1104 175.12,-1092 175.12,-1092 175.12,-1086 181.12,-1080 187.12,-1080 187.12,-1080 289.38,-1080 289.38,-1080 295.38,-1080 301.38,-1086 301.38,-1092 301.38,-1092 301.38,-1104 301.38,-1104 301.38,-1110 295.38,-1116 289.38,-1116"/>
<text text-anchor="middle" x="238.25" y="-1094.88" font-family="sans" font-size="10.00">signalp3_transdecoder</text>
</g>
<!-- 20&#45;&gt;19 -->
<g id="edge36" class="edge">
<title>20&#45;&gt;19</title>
<path fill="none" stroke="grey" stroke-width="2" d="M202.91,-1079.17C189.42,-1070.47 175.35,-1058.68 167.25,-1044 157.53,-1026.37 155.87,-1003.72 156.59,-985.68"/>
<polygon fill="grey" stroke="grey" stroke-width="2" points="160.07,-986.19 157.3,-975.96 153.08,-985.68 160.07,-986.19"/>
</g>
<!-- 24 -->
<g id="node25" class="node">
<title>24</title>
<path fill="none" stroke="#56d86b" stroke-width="2" stroke-dasharray="5,2" d="M342.62,-1044C342.62,-1044 187.88,-1044 187.88,-1044 181.88,-1044 175.88,-1038 175.88,-1032 175.88,-1032 175.88,-1020 175.88,-1020 175.88,-1014 181.88,-1008 187.88,-1008 187.88,-1008 342.62,-1008 342.62,-1008 348.62,-1008 354.62,-1014 354.62,-1020 354.62,-1020 354.62,-1032 354.62,-1032 354.62,-1038 348.62,-1044 342.62,-1044"/>
<text text-anchor="middle" x="265.25" y="-1022.88" font-family="sans" font-size="10.00">take_signalp_union_transdecoder</text>
</g>
<!-- 20&#45;&gt;24 -->
<g id="edge45" class="edge">
<title>20&#45;&gt;24</title>
<path fill="none" stroke="grey" stroke-width="2" d="M245.06,-1079.34C247.7,-1072.51 250.79,-1064.5 253.74,-1056.83"/>
<polygon fill="grey" stroke="grey" stroke-width="2" points="256.92,-1058.32 257.26,-1047.73 250.39,-1055.8 256.92,-1058.32"/>
</g>
<!-- 21&#45;&gt;20 -->
<g id="edge40" class="edge">
<title>21&#45;&gt;20</title>
<path fill="none" stroke="grey" stroke-width="2" d="M271.15,-1151.34C266.65,-1144.18 261.34,-1135.73 256.31,-1127.73"/>
<polygon fill="grey" stroke="grey" stroke-width="2" points="259.4,-1126.07 251.11,-1119.46 253.47,-1129.79 259.4,-1126.07"/>
</g>
<!-- 22 -->
<g id="node23" class="node">
<title>22</title>
<path fill="none" stroke="#88d856" stroke-width="2" stroke-dasharray="5,2" d="M145.38,-1116C145.38,-1116 43.12,-1116 43.12,-1116 37.12,-1116 31.12,-1110 31.12,-1104 31.12,-1104 31.12,-1092 31.12,-1092 31.12,-1086 37.12,-1080 43.12,-1080 43.12,-1080 145.38,-1080 145.38,-1080 151.38,-1080 157.38,-1086 157.38,-1092 157.38,-1092 157.38,-1104 157.38,-1104 157.38,-1110 151.38,-1116 145.38,-1116"/>
<text text-anchor="middle" x="94.25" y="-1094.88" font-family="sans" font-size="10.00">signalp4_transdecoder</text>
</g>
<!-- 21&#45;&gt;22 -->
<g id="edge43" class="edge">
<title>21&#45;&gt;22</title>
<path fill="none" stroke="grey" stroke-width="2" d="M234.32,-1151.15C210,-1142.1 180.21,-1131.01 154.36,-1121.38"/>
<polygon fill="grey" stroke="grey" stroke-width="2" points="155.85,-1118.2 145.25,-1117.99 153.4,-1124.76 155.85,-1118.2"/>
</g>
<!-- 23 -->
<g id="node24" class="node">
<title>23</title>
<path fill="none" stroke="#5682d8" stroke-width="2" stroke-dasharray="5,2" d="M433.38,-1116C433.38,-1116 331.12,-1116 331.12,-1116 325.12,-1116 319.12,-1110 319.12,-1104 319.12,-1104 319.12,-1092 319.12,-1092 319.12,-1086 325.12,-1080 331.12,-1080 331.12,-1080 433.38,-1080 433.38,-1080 439.38,-1080 445.38,-1086 445.38,-1092 445.38,-1092 445.38,-1104 445.38,-1104 445.38,-1110 439.38,-1116 433.38,-1116"/>
<text text-anchor="middle" x="382.25" y="-1094.88" font-family="sans" font-size="10.00">signalp6_transdecoder</text>
</g>
<!-- 21&#45;&gt;23 -->
<g id="edge44" class="edge">
<title>21&#45;&gt;23</title>
<path fill="none" stroke="grey" stroke-width="2" d="M307.74,-1151.15C319.5,-1142.93 333.65,-1133.02 346.45,-1124.06"/>
<polygon fill="grey" stroke="grey" stroke-width="2" points="348.14,-1127.15 354.32,-1118.55 344.12,-1121.42 348.14,-1127.15"/>
</g>
<!-- 22&#45;&gt;19 -->
<g id="edge37" class="edge">
<title>22&#45;&gt;19</title>
<path fill="none" stroke="grey" stroke-width="2" d="M102.04,-1079.19C109.98,-1061.16 122.72,-1032.53 134.25,-1008 137.91,-1000.21 141.97,-991.82 145.77,-984.07"/>
<polygon fill="grey" stroke="grey" stroke-width="2" points="148.81,-985.83 150.09,-975.31 142.53,-982.73 148.81,-985.83"/>
</g>
<!-- 22&#45;&gt;24 -->
<g id="edge46" class="edge">
<title>22&#45;&gt;24</title>
<path fill="none" stroke="grey" stroke-width="2" d="M137.84,-1079.15C159.67,-1070.22 186.33,-1059.31 209.62,-1049.77"/>
<polygon fill="grey" stroke="grey" stroke-width="2" points="210.71,-1053.11 218.64,-1046.08 208.06,-1046.63 210.71,-1053.11"/>
</g>
<!-- 23&#45;&gt;19 -->
<g id="edge38" class="edge">
<title>23&#45;&gt;19</title>
<path fill="none" stroke="grey" stroke-width="2" d="M383.57,-1079.12C384.01,-1059.14 381.48,-1027.07 363.25,-1008 350.84,-995.02 317.88,-984.17 282.03,-975.75"/>
<polygon fill="grey" stroke="grey" stroke-width="2" points="283.27,-972.44 272.74,-973.65 281.72,-979.27 283.27,-972.44"/>
</g>
<!-- 23&#45;&gt;24 -->
<g id="edge47" class="edge">
<title>23&#45;&gt;24</title>
<path fill="none" stroke="grey" stroke-width="2" d="M352.42,-1079.15C338.26,-1070.68 321.11,-1060.42 305.79,-1051.25"/>
<polygon fill="grey" stroke="grey" stroke-width="2" points="308,-1048.5 297.62,-1046.37 304.4,-1054.5 308,-1048.5"/>
</g>
<!-- 24&#45;&gt;17 -->
<g id="edge34" class="edge">
<title>24&#45;&gt;17</title>
<path fill="none" stroke="grey" stroke-width="2" d="M293.74,-1007.04C306.2,-997.9 320.05,-985.81 329.25,-972 347.81,-944.16 346.31,-933.09 351.25,-900 353.61,-884.18 357.01,-878.93 351.25,-864 347.62,-854.58 341.45,-845.79 334.72,-838.19"/>
<polygon fill="grey" stroke="grey" stroke-width="2" points="337.3,-835.83 327.82,-831.09 332.28,-840.7 337.3,-835.83"/>
</g>
<!-- 24&#45;&gt;19 -->
<g id="edge39" class="edge">
<title>24&#45;&gt;19</title>
<path fill="none" stroke="grey" stroke-width="2" d="M238.48,-1007.15C226.02,-998.84 210.98,-988.82 197.43,-979.79"/>
<polygon fill="grey" stroke="grey" stroke-width="2" points="199.75,-977.13 189.49,-974.49 195.87,-982.95 199.75,-977.13"/>
</g>
<!-- 25&#45;&gt;17 -->
<g id="edge33" class="edge">
<title>25&#45;&gt;17</title>
<path fill="none" stroke="grey" stroke-width="2" d="M286.05,-863.34C288.27,-856.59 290.86,-848.69 293.36,-841.11"/>
<polygon fill="grey" stroke="grey" stroke-width="2" points="296.63,-842.37 296.42,-831.78 289.98,-840.19 296.63,-842.37"/>
</g>
<!-- 26 -->
<g id="node27" class="node">
<title>26</title>
<path fill="none" stroke="#d8cb56" stroke-width="2" stroke-dasharray="5,2" d="M643.25,-180C643.25,-180 477.25,-180 477.25,-180 471.25,-180 465.25,-174 465.25,-168 465.25,-168 465.25,-156 465.25,-156 465.25,-150 471.25,-144 477.25,-144 477.25,-144 643.25,-144 643.25,-144 649.25,-144 655.25,-150 655.25,-156 655.25,-156 655.25,-168 655.25,-168 655.25,-174 649.25,-180 643.25,-180"/>
<text text-anchor="middle" x="560.25" y="-158.88" font-family="sans" font-size="10.00">filter_SP_for_absence_of_TM_helice</text>
</g>
<!-- 26&#45;&gt;1 -->
<g id="edge4" class="edge">
<title>26&#45;&gt;1</title>
<path fill="none" stroke="grey" stroke-width="2" d="M560.25,-143.34C560.25,-136.75 560.25,-129.08 560.25,-121.67"/>
<polygon fill="grey" stroke="grey" stroke-width="2" points="563.75,-121.93 560.25,-111.93 556.75,-121.93 563.75,-121.93"/>
</g>
<!-- 27 -->
<g id="node28" class="node">
<title>27</title>
<path fill="none" stroke="#d86656" stroke-width="2" stroke-dasharray="5,2" d="M574.75,-252C574.75,-252 543.75,-252 543.75,-252 537.75,-252 531.75,-246 531.75,-240 531.75,-240 531.75,-228 531.75,-228 531.75,-222 537.75,-216 543.75,-216 543.75,-216 574.75,-216 574.75,-216 580.75,-216 586.75,-222 586.75,-228 586.75,-228 586.75,-240 586.75,-240 586.75,-246 580.75,-252 574.75,-252"/>
<text text-anchor="middle" x="559.25" y="-230.88" font-family="sans" font-size="10.00">tmmhm</text>
</g>
<!-- 27&#45;&gt;26 -->
<g id="edge49" class="edge">
<title>27&#45;&gt;26</title>
<path fill="none" stroke="grey" stroke-width="2" d="M559.5,-215.34C559.6,-208.75 559.71,-201.08 559.81,-193.67"/>
<polygon fill="grey" stroke="grey" stroke-width="2" points="563.31,-193.98 559.95,-183.93 556.31,-193.88 563.31,-193.98"/>
</g>
<!-- 28 -->
<g id="node29" class="node">
<title>28</title>
<path fill="none" stroke="#61d856" stroke-width="2" stroke-dasharray="5,2" d="M745,-324C745,-324 517.5,-324 517.5,-324 511.5,-324 505.5,-318 505.5,-312 505.5,-312 505.5,-300 505.5,-300 505.5,-294 511.5,-288 517.5,-288 517.5,-288 745,-288 745,-288 751,-288 757,-294 757,-300 757,-300 757,-312 757,-312 757,-318 751,-324 745,-324"/>
<text text-anchor="middle" x="631.25" y="-302.88" font-family="sans" font-size="10.00">combine_signalp_unions_mature_proteins_fasta</text>
</g>
<!-- 28&#45;&gt;27 -->
<g id="edge52" class="edge">
<title>28&#45;&gt;27</title>
<path fill="none" stroke="grey" stroke-width="2" d="M613.08,-287.34C605.13,-279.6 595.62,-270.36 586.82,-261.81"/>
<polygon fill="grey" stroke="grey" stroke-width="2" points="589.44,-259.47 579.83,-255.01 584.56,-264.49 589.44,-259.47"/>
</g>
<!-- 33 -->
<g id="node34" class="node">
<title>33</title>
<path fill="none" stroke="#b6d856" stroke-width="2" stroke-dasharray="5,2" d="M647.38,-252C647.38,-252 617.12,-252 617.12,-252 611.12,-252 605.12,-246 605.12,-240 605.12,-240 605.12,-228 605.12,-228 605.12,-222 611.12,-216 617.12,-216 617.12,-216 647.38,-216 647.38,-216 653.38,-216 659.38,-222 659.38,-228 659.38,-228 659.38,-240 659.38,-240 659.38,-246 653.38,-252 647.38,-252"/>
<text text-anchor="middle" x="632.25" y="-230.88" font-family="sans" font-size="10.00">phobius</text>
</g>
<!-- 28&#45;&gt;33 -->
<g id="edge63" class="edge">
<title>28&#45;&gt;33</title>
<path fill="none" stroke="grey" stroke-width="2" d="M631.5,-287.34C631.6,-280.75 631.71,-273.08 631.81,-265.67"/>
<polygon fill="grey" stroke="grey" stroke-width="2" points="635.31,-265.98 631.95,-255.93 628.31,-265.88 635.31,-265.98"/>
</g>
<!-- 29 -->
<g id="node30" class="node">
<title>29</title>
<path fill="none" stroke="#d89556" stroke-width="2" stroke-dasharray="5,2" d="M601.12,-396C601.12,-396 515.38,-396 515.38,-396 509.38,-396 503.38,-390 503.38,-384 503.38,-384 503.38,-372 503.38,-372 503.38,-366 509.38,-360 515.38,-360 515.38,-360 601.12,-360 601.12,-360 607.12,-360 613.12,-366 613.12,-372 613.12,-372 613.12,-384 613.12,-384 613.12,-390 607.12,-396 601.12,-396"/>
<text text-anchor="middle" x="558.25" y="-374.88" font-family="sans" font-size="10.00">take_signalp_union</text>
</g>
<!-- 29&#45;&gt;26 -->
<g id="edge51" class="edge">
<title>29&#45;&gt;26</title>
<path fill="none" stroke="grey" stroke-width="2" d="M527.77,-359.23C515.58,-350.35 502.89,-338.4 496.25,-324 489.55,-309.47 493.4,-303.74 496.25,-288 502.35,-254.37 507.34,-246.25 523.25,-216 527.65,-207.63 533.17,-199.03 538.58,-191.25"/>
<polygon fill="grey" stroke="grey" stroke-width="2" points="541.25,-193.53 544.28,-183.37 535.58,-189.43 541.25,-193.53"/>
</g>
<!-- 29&#45;&gt;28 -->
<g id="edge53" class="edge">
<title>29&#45;&gt;28</title>
<path fill="none" stroke="grey" stroke-width="2" d="M576.67,-359.34C584.74,-351.6 594.38,-342.36 603.29,-333.81"/>
<polygon fill="grey" stroke="grey" stroke-width="2" points="605.6,-336.44 610.4,-327 600.76,-331.39 605.6,-336.44"/>
</g>
<!-- 30&#45;&gt;28 -->
<g id="edge54" class="edge">
<title>30&#45;&gt;28</title>
<path fill="none" stroke="grey" stroke-width="2" d="M601.7,-431.12C609.22,-421.39 617.61,-408.75 622.25,-396 628.99,-377.46 631.26,-355.4 631.83,-337.89"/>
<polygon fill="grey" stroke="grey" stroke-width="2" points="635.33,-338.03 631.95,-327.99 628.33,-337.95 635.33,-338.03"/>
</g>
<!-- 30&#45;&gt;29 -->
<g id="edge57" class="edge">
<title>30&#45;&gt;29</title>
<path fill="none" stroke="grey" stroke-width="2" d="M579.18,-431.34C576.45,-424.51 573.25,-416.5 570.18,-408.83"/>
<polygon fill="grey" stroke="grey" stroke-width="2" points="573.5,-407.7 566.53,-399.71 567,-410.3 573.5,-407.7"/>
</g>
<!-- 31&#45;&gt;28 -->
<g id="edge55" class="edge">
<title>31&#45;&gt;28</title>
<path fill="none" stroke="grey" stroke-width="2" d="M661.9,-431.32C662.13,-413.15 661.33,-384.18 655.25,-360 653.24,-352 650.07,-343.7 646.68,-336.12"/>
<polygon fill="grey" stroke="grey" stroke-width="2" points="649.93,-334.8 642.44,-327.3 643.62,-337.83 649.93,-334.8"/>
</g>
<!-- 31&#45;&gt;29 -->
<g id="edge58" class="edge">
<title>31&#45;&gt;29</title>
<path fill="none" stroke="grey" stroke-width="2" d="M634.99,-431.15C622.89,-422.93 608.31,-413.02 595.12,-404.06"/>
<polygon fill="grey" stroke="grey" stroke-width="2" points="597.2,-401.24 586.96,-398.51 593.27,-407.03 597.2,-401.24"/>
</g>
<!-- 32&#45;&gt;28 -->
<g id="edge56" class="edge">
<title>32&#45;&gt;28</title>
<path fill="none" stroke="grey" stroke-width="2" d="M500.59,-431.02C490.74,-411.82 479.67,-381.28 494.25,-360 502.87,-347.43 514.93,-337.84 528.35,-330.52"/>
<polygon fill="grey" stroke="grey" stroke-width="2" points="529.73,-333.74 537.19,-326.22 526.66,-327.45 529.73,-333.74"/>
</g>
<!-- 32&#45;&gt;29 -->
<g id="edge59" class="edge">
<title>32&#45;&gt;29</title>
<path fill="none" stroke="grey" stroke-width="2" d="M523.11,-431.34C527.97,-424.1 533.72,-415.53 539.15,-407.45"/>
<polygon fill="grey" stroke="grey" stroke-width="2" points="541.87,-409.67 544.54,-399.41 536.06,-405.77 541.87,-409.67"/>
</g>
<!-- 33&#45;&gt;26 -->
<g id="edge50" class="edge">
<title>33&#45;&gt;26</title>
<path fill="none" stroke="grey" stroke-width="2" d="M614.08,-215.34C606.13,-207.6 596.62,-198.36 587.82,-189.81"/>
<polygon fill="grey" stroke="grey" stroke-width="2" points="590.44,-187.47 580.83,-183.01 585.56,-192.49 590.44,-187.47"/>
</g>
<!-- 34&#45;&gt;0 -->
<g id="edge2" class="edge">
<title>34&#45;&gt;0</title>
<path fill="none" stroke="grey" stroke-width="2" d="M777.32,-359.1C780.25,-332.2 785.25,-279.73 785.25,-235 785.25,-235 785.25,-235 785.25,-161 785.25,-111.51 742.61,-69.44 709.49,-44.23"/>
<polygon fill="grey" stroke="grey" stroke-width="2" points="711.72,-41.52 701.58,-38.44 707.58,-47.17 711.72,-41.52"/>
</g>
</g>
</svg>
