<?xml version="1.0" encoding="UTF-8" standalone="no"?>
<!DOCTYPE svg PUBLIC "-//W3C//DTD SVG 1.1//EN"
 "http://www.w3.org/Graphics/SVG/1.1/DTD/svg11.dtd">
<!-- Generated by graphviz version 12.2.1 (20250203.1708)
 -->
<!-- Title: snakemake_dag Pages: 1 -->
<svg width="1069pt" height="1340pt"
 viewBox="0.00 0.00 1068.52 1340.00" xmlns="http://www.w3.org/2000/svg" xmlns:xlink="http://www.w3.org/1999/xlink">
<g id="graph0" class="graph" transform="scale(1 1) rotate(0) translate(4 1336)">
<title>snakemake_dag</title>
<polygon fill="white" stroke="none" points="-4,4 -4,-1336 1064.52,-1336 1064.52,4 -4,4"/>
<!-- 0 -->
<g id="node1" class="node">
<title>0</title>
<path fill="none" stroke="#56d85b" stroke-width="2" d="M213.75,-36C213.75,-36 183.75,-36 183.75,-36 177.75,-36 171.75,-30 171.75,-24 171.75,-24 171.75,-12 171.75,-12 171.75,-6 177.75,0 183.75,0 183.75,0 213.75,0 213.75,0 219.75,0 225.75,-6 225.75,-12 225.75,-12 225.75,-24 225.75,-24 225.75,-30 219.75,-36 213.75,-36"/>
<text text-anchor="middle" x="198.75" y="-14.88" font-family="sans" font-size="10.00">all</text>
</g>
<!-- 1 -->
<g id="node2" class="node">
<title>1</title>
<path fill="none" stroke="#d88556" stroke-width="2" d="M281.75,-108C281.75,-108 115.75,-108 115.75,-108 109.75,-108 103.75,-102 103.75,-96 103.75,-96 103.75,-84 103.75,-84 103.75,-78 109.75,-72 115.75,-72 115.75,-72 281.75,-72 281.75,-72 287.75,-72 293.75,-78 293.75,-84 293.75,-84 293.75,-96 293.75,-96 293.75,-102 287.75,-108 281.75,-108"/>
<text text-anchor="middle" x="198.75" y="-86.88" font-family="sans" font-size="10.00">filter_SP_for_absence_of_TM_helice</text>
</g>
<!-- 1&#45;&gt;0 -->
<g id="edge1" class="edge">
<title>1&#45;&gt;0</title>
<path fill="none" stroke="grey" stroke-width="2" d="M198.75,-71.34C198.75,-64.75 198.75,-57.08 198.75,-49.67"/>
<polygon fill="grey" stroke="grey" stroke-width="2" points="202.25,-49.93 198.75,-39.93 195.25,-49.93 202.25,-49.93"/>
</g>
<!-- 2 -->
<g id="node3" class="node">
<title>2</title>
<path fill="none" stroke="#ced856" stroke-width="2" d="M141.25,-180C141.25,-180 110.25,-180 110.25,-180 104.25,-180 98.25,-174 98.25,-168 98.25,-168 98.25,-156 98.25,-156 98.25,-150 104.25,-144 110.25,-144 110.25,-144 141.25,-144 141.25,-144 147.25,-144 153.25,-150 153.25,-156 153.25,-156 153.25,-168 153.25,-168 153.25,-174 147.25,-180 141.25,-180"/>
<text text-anchor="middle" x="125.75" y="-158.88" font-family="sans" font-size="10.00">tmmhm</text>
</g>
<!-- 2&#45;&gt;1 -->
<g id="edge2" class="edge">
<title>2&#45;&gt;1</title>
<path fill="none" stroke="grey" stroke-width="2" d="M144.17,-143.34C152.24,-135.6 161.88,-126.36 170.79,-117.81"/>
<polygon fill="grey" stroke="grey" stroke-width="2" points="173.1,-120.44 177.9,-111 168.26,-115.39 173.1,-120.44"/>
</g>
<!-- 3 -->
<g id="node4" class="node">
<title>3</title>
<path fill="none" stroke="#5692d8" stroke-width="2" d="M239.5,-252C239.5,-252 12,-252 12,-252 6,-252 0,-246 0,-240 0,-240 0,-228 0,-228 0,-222 6,-216 12,-216 12,-216 239.5,-216 239.5,-216 245.5,-216 251.5,-222 251.5,-228 251.5,-228 251.5,-240 251.5,-240 251.5,-246 245.5,-252 239.5,-252"/>
<text text-anchor="middle" x="125.75" y="-230.88" font-family="sans" font-size="10.00">combine_signalp_unions_mature_proteins_fasta</text>
</g>
<!-- 3&#45;&gt;2 -->
<g id="edge5" class="edge">
<title>3&#45;&gt;2</title>
<path fill="none" stroke="grey" stroke-width="2" d="M125.75,-215.34C125.75,-208.75 125.75,-201.08 125.75,-193.67"/>
<polygon fill="grey" stroke="grey" stroke-width="2" points="129.25,-193.93 125.75,-183.93 122.25,-193.93 129.25,-193.93"/>
</g>
<!-- 31 -->
<g id="node32" class="node">
<title>31</title>
<path fill="none" stroke="#56c1d8" stroke-width="2" d="M213.88,-180C213.88,-180 183.62,-180 183.62,-180 177.62,-180 171.62,-174 171.62,-168 171.62,-168 171.62,-156 171.62,-156 171.62,-150 177.62,-144 183.62,-144 183.62,-144 213.88,-144 213.88,-144 219.88,-144 225.88,-150 225.88,-156 225.88,-156 225.88,-168 225.88,-168 225.88,-174 219.88,-180 213.88,-180"/>
<text text-anchor="middle" x="198.75" y="-158.88" font-family="sans" font-size="10.00">phobius</text>
</g>
<!-- 3&#45;&gt;31 -->
<g id="edge55" class="edge">
<title>3&#45;&gt;31</title>
<path fill="none" stroke="grey" stroke-width="2" d="M144.17,-215.34C152.24,-207.6 161.88,-198.36 170.79,-189.81"/>
<polygon fill="grey" stroke="grey" stroke-width="2" points="173.1,-192.44 177.9,-183 168.26,-187.39 173.1,-192.44"/>
</g>
<!-- 4 -->
<g id="node5" class="node">
<title>4</title>
<path fill="none" stroke="#56d0d8" stroke-width="2" d="M251.62,-324C251.62,-324 165.88,-324 165.88,-324 159.88,-324 153.88,-318 153.88,-312 153.88,-312 153.88,-300 153.88,-300 153.88,-294 159.88,-288 165.88,-288 165.88,-288 251.62,-288 251.62,-288 257.62,-288 263.62,-294 263.62,-300 263.62,-300 263.62,-312 263.62,-312 263.62,-318 257.62,-324 251.62,-324"/>
<text text-anchor="middle" x="208.75" y="-302.88" font-family="sans" font-size="10.00">take_signalp_union</text>
</g>
<!-- 4&#45;&gt;1 -->
<g id="edge4" class="edge">
<title>4&#45;&gt;1</title>
<path fill="none" stroke="grey" stroke-width="2" d="M233.32,-287.2C243.89,-278.02 255.09,-265.84 260.75,-252 266.8,-237.19 263.51,-231.76 260.75,-216 254.88,-182.49 250.21,-174.31 234.75,-144 230.54,-135.74 225.26,-127.25 220.05,-119.54"/>
<polygon fill="grey" stroke="grey" stroke-width="2" points="222.95,-117.59 214.34,-111.42 217.22,-121.61 222.95,-117.59"/>
</g>
<!-- 4&#45;&gt;3 -->
<g id="edge6" class="edge">
<title>4&#45;&gt;3</title>
<path fill="none" stroke="grey" stroke-width="2" d="M187.81,-287.34C178.44,-279.44 167.21,-269.96 156.89,-261.26"/>
<polygon fill="grey" stroke="grey" stroke-width="2" points="159.19,-258.62 149.29,-254.85 154.68,-263.98 159.19,-258.62"/>
</g>
<!-- 5 -->
<g id="node6" class="node">
<title>5</title>
<path fill="none" stroke="#56d88a" stroke-width="2" d="M127.38,-396C127.38,-396 94.12,-396 94.12,-396 88.12,-396 82.12,-390 82.12,-384 82.12,-384 82.12,-372 82.12,-372 82.12,-366 88.12,-360 94.12,-360 94.12,-360 127.38,-360 127.38,-360 133.38,-360 139.38,-366 139.38,-372 139.38,-372 139.38,-384 139.38,-384 139.38,-390 133.38,-396 127.38,-396"/>
<text text-anchor="middle" x="110.75" y="-374.88" font-family="sans" font-size="10.00">signalp3</text>
</g>
<!-- 5&#45;&gt;3 -->
<g id="edge7" class="edge">
<title>5&#45;&gt;3</title>
<path fill="none" stroke="grey" stroke-width="2" d="M109.67,-359.18C108.87,-341.14 108.43,-312.5 111.75,-288 112.76,-280.57 114.47,-272.7 116.36,-265.36"/>
<polygon fill="grey" stroke="grey" stroke-width="2" points="119.7,-266.42 119.02,-255.84 112.95,-264.53 119.7,-266.42"/>
</g>
<!-- 5&#45;&gt;4 -->
<g id="edge10" class="edge">
<title>5&#45;&gt;4</title>
<path fill="none" stroke="grey" stroke-width="2" d="M135.73,-359.15C147.14,-351.01 160.85,-341.22 173.29,-332.33"/>
<polygon fill="grey" stroke="grey" stroke-width="2" points="175.25,-335.23 181.35,-326.57 171.18,-329.54 175.25,-335.23"/>
</g>
<!-- 6 -->
<g id="node7" class="node">
<title>6</title>
<path fill="none" stroke="#5682d8" stroke-width="2" d="M285.62,-468C285.62,-468 85.88,-468 85.88,-468 79.88,-468 73.88,-462 73.88,-456 73.88,-456 73.88,-444 73.88,-444 73.88,-438 79.88,-432 85.88,-432 85.88,-432 285.62,-432 285.62,-432 291.62,-432 297.62,-438 297.62,-444 297.62,-444 297.62,-456 297.62,-456 297.62,-462 291.62,-468 285.62,-468"/>
<text text-anchor="middle" x="185.75" y="-446.88" font-family="sans" font-size="10.00">get_protein_sequences_from_merged_gff3</text>
</g>
<!-- 6&#45;&gt;5 -->
<g id="edge13" class="edge">
<title>6&#45;&gt;5</title>
<path fill="none" stroke="grey" stroke-width="2" d="M166.82,-431.34C158.45,-423.52 148.42,-414.16 139.18,-405.53"/>
<polygon fill="grey" stroke="grey" stroke-width="2" points="141.84,-403.23 132.14,-398.97 137.07,-408.35 141.84,-403.23"/>
</g>
<!-- 29 -->
<g id="node30" class="node">
<title>29</title>
<path fill="none" stroke="#d8d356" stroke-width="2" d="M202.38,-396C202.38,-396 169.12,-396 169.12,-396 163.12,-396 157.12,-390 157.12,-384 157.12,-384 157.12,-372 157.12,-372 157.12,-366 163.12,-360 169.12,-360 169.12,-360 202.38,-360 202.38,-360 208.38,-360 214.38,-366 214.38,-372 214.38,-372 214.38,-384 214.38,-384 214.38,-390 208.38,-396 202.38,-396"/>
<text text-anchor="middle" x="185.75" y="-374.88" font-family="sans" font-size="10.00">signalp4</text>
</g>
<!-- 6&#45;&gt;29 -->
<g id="edge53" class="edge">
<title>6&#45;&gt;29</title>
<path fill="none" stroke="grey" stroke-width="2" d="M185.75,-431.34C185.75,-424.75 185.75,-417.08 185.75,-409.67"/>
<polygon fill="grey" stroke="grey" stroke-width="2" points="189.25,-409.93 185.75,-399.93 182.25,-409.93 189.25,-409.93"/>
</g>
<!-- 30 -->
<g id="node31" class="node">
<title>30</title>
<path fill="none" stroke="#5673d8" stroke-width="2" d="M277.38,-396C277.38,-396 244.12,-396 244.12,-396 238.12,-396 232.12,-390 232.12,-384 232.12,-384 232.12,-372 232.12,-372 232.12,-366 238.12,-360 244.12,-360 244.12,-360 277.38,-360 277.38,-360 283.38,-360 289.38,-366 289.38,-372 289.38,-372 289.38,-384 289.38,-384 289.38,-390 283.38,-396 277.38,-396"/>
<text text-anchor="middle" x="260.75" y="-374.88" font-family="sans" font-size="10.00">signalp6</text>
</g>
<!-- 6&#45;&gt;30 -->
<g id="edge54" class="edge">
<title>6&#45;&gt;30</title>
<path fill="none" stroke="grey" stroke-width="2" d="M204.68,-431.34C213.05,-423.52 223.08,-414.16 232.32,-405.53"/>
<polygon fill="grey" stroke="grey" stroke-width="2" points="234.43,-408.35 239.36,-398.97 229.66,-403.23 234.43,-408.35"/>
</g>
<!-- 7 -->
<g id="node8" class="node">
<title>7</title>
<path fill="none" stroke="#56a2d8" stroke-width="2" stroke-dasharray="5,2" d="M636.38,-1332C636.38,-1332 561.12,-1332 561.12,-1332 555.12,-1332 549.12,-1326 549.12,-1320 549.12,-1320 549.12,-1308 549.12,-1308 549.12,-1302 555.12,-1296 561.12,-1296 561.12,-1296 636.38,-1296 636.38,-1296 642.38,-1296 648.38,-1302 648.38,-1308 648.38,-1308 648.38,-1320 648.38,-1320 648.38,-1326 642.38,-1332 636.38,-1332"/>
<text text-anchor="middle" x="598.75" y="-1310.88" font-family="sans" font-size="10.00">funannotate_sort</text>
</g>
<!-- 7&#45;&gt;6 -->
<g id="edge14" class="edge">
<title>7&#45;&gt;6</title>
<path fill="none" stroke="grey" stroke-width="2" d="M548.16,-1313.38C445.12,-1313.14 215.6,-1307.16 155.75,-1260 122.61,-1233.89 122.75,-1213.19 122.75,-1171 122.75,-1171 122.75,-1171 122.75,-593 122.75,-552.55 124.1,-540.39 141.75,-504 146.18,-494.87 152.5,-485.97 158.98,-478.16"/>
<polygon fill="grey" stroke="grey" stroke-width="2" points="161.44,-480.66 165.43,-470.84 156.19,-476.02 161.44,-480.66"/>
</g>
<!-- 8 -->
<g id="node9" class="node">
<title>8</title>
<path fill="none" stroke="#56d8b9" stroke-width="2" d="M336.88,-540C336.88,-540 162.62,-540 162.62,-540 156.62,-540 150.62,-534 150.62,-528 150.62,-528 150.62,-516 150.62,-516 150.62,-510 156.62,-504 162.62,-504 162.62,-504 336.88,-504 336.88,-504 342.88,-504 348.88,-510 348.88,-516 348.88,-516 348.88,-528 348.88,-528 348.88,-534 342.88,-540 336.88,-540"/>
<text text-anchor="middle" x="249.75" y="-518.88" font-family="sans" font-size="10.00">renumber_gene_models_after_merge</text>
</g>
<!-- 7&#45;&gt;8 -->
<g id="edge16" class="edge">
<title>7&#45;&gt;8</title>
<path fill="none" stroke="grey" stroke-width="2" d="M548.45,-1313.64C449.05,-1313.83 232.53,-1308.49 179.75,-1260 149.97,-1232.63 160.75,-1211.45 160.75,-1171 160.75,-1171 160.75,-1171 160.75,-665 160.75,-619.39 194.12,-576.4 219.99,-549.92"/>
<polygon fill="grey" stroke="grey" stroke-width="2" points="222.29,-552.57 226.95,-543.06 217.37,-547.58 222.29,-552.57"/>
</g>
<!-- 10 -->
<g id="node11" class="node">
<title>10</title>
<path fill="none" stroke="#9fd856" stroke-width="2" stroke-dasharray="5,2" d="M760.88,-1116C760.88,-1116 670.62,-1116 670.62,-1116 664.62,-1116 658.62,-1110 658.62,-1104 658.62,-1104 658.62,-1092 658.62,-1092 658.62,-1086 664.62,-1080 670.62,-1080 670.62,-1080 760.88,-1080 760.88,-1080 766.88,-1080 772.88,-1086 772.88,-1092 772.88,-1092 772.88,-1104 772.88,-1104 772.88,-1110 766.88,-1116 760.88,-1116"/>
<text text-anchor="middle" x="715.75" y="-1094.88" font-family="sans" font-size="10.00">funannotate_update</text>
</g>
<!-- 7&#45;&gt;10 -->
<g id="edge20" class="edge">
<title>7&#45;&gt;10</title>
<path fill="none" stroke="grey" stroke-width="2" d="M588.45,-1295.31C579.15,-1276.88 568.39,-1247.47 578.75,-1224 597.96,-1180.47 640.65,-1145.54 673.31,-1123.78"/>
<polygon fill="grey" stroke="grey" stroke-width="2" points="674.9,-1126.92 681.41,-1118.56 671.11,-1121.04 674.9,-1126.92"/>
</g>
<!-- 11 -->
<g id="node12" class="node">
<title>11</title>
<path fill="none" stroke="#afd856" stroke-width="2" stroke-dasharray="5,2" d="M814.88,-1188C814.88,-1188 724.62,-1188 724.62,-1188 718.62,-1188 712.62,-1182 712.62,-1176 712.62,-1176 712.62,-1164 712.62,-1164 712.62,-1158 718.62,-1152 724.62,-1152 724.62,-1152 814.88,-1152 814.88,-1152 820.88,-1152 826.88,-1158 826.88,-1164 826.88,-1164 826.88,-1176 826.88,-1176 826.88,-1182 820.88,-1188 814.88,-1188"/>
<text text-anchor="middle" x="769.75" y="-1166.88" font-family="sans" font-size="10.00">funannotate_predict</text>
</g>
<!-- 7&#45;&gt;11 -->
<g id="edge22" class="edge">
<title>7&#45;&gt;11</title>
<path fill="none" stroke="grey" stroke-width="2" d="M642.48,-1295.02C661.24,-1286.1 682.7,-1274.18 699.75,-1260 720.5,-1242.74 739.12,-1218.4 751.94,-1199.53"/>
<polygon fill="grey" stroke="grey" stroke-width="2" points="754.71,-1201.68 757.29,-1191.41 748.87,-1197.83 754.71,-1201.68"/>
</g>
<!-- 12 -->
<g id="node13" class="node">
<title>12</title>
<path fill="none" stroke="#56b1d8" stroke-width="2" stroke-dasharray="5,2" d="M678.25,-1260C678.25,-1260 599.25,-1260 599.25,-1260 593.25,-1260 587.25,-1254 587.25,-1248 587.25,-1248 587.25,-1236 587.25,-1236 587.25,-1230 593.25,-1224 599.25,-1224 599.25,-1224 678.25,-1224 678.25,-1224 684.25,-1224 690.25,-1230 690.25,-1236 690.25,-1236 690.25,-1248 690.25,-1248 690.25,-1254 684.25,-1260 678.25,-1260"/>
<text text-anchor="middle" x="638.75" y="-1238.88" font-family="sans" font-size="10.00">funannotate_train</text>
</g>
<!-- 7&#45;&gt;12 -->
<g id="edge27" class="edge">
<title>7&#45;&gt;12</title>
<path fill="none" stroke="grey" stroke-width="2" d="M608.84,-1295.34C612.89,-1288.26 617.65,-1279.92 622.18,-1272"/>
<polygon fill="grey" stroke="grey" stroke-width="2" points="625.1,-1273.95 627.02,-1263.53 619.02,-1270.48 625.1,-1273.95"/>
</g>
<!-- 13 -->
<g id="node14" class="node">
<title>13</title>
<path fill="none" stroke="#8fd856" stroke-width="2" stroke-dasharray="5,2" d="M882.75,-1260C882.75,-1260 758.75,-1260 758.75,-1260 752.75,-1260 746.75,-1254 746.75,-1248 746.75,-1248 746.75,-1236 746.75,-1236 746.75,-1230 752.75,-1224 758.75,-1224 758.75,-1224 882.75,-1224 882.75,-1224 888.75,-1224 894.75,-1230 894.75,-1236 894.75,-1236 894.75,-1248 894.75,-1248 894.75,-1254 888.75,-1260 882.75,-1260"/>
<text text-anchor="middle" x="820.75" y="-1238.88" font-family="sans" font-size="10.00">codingquarryPM_infections</text>
</g>
<!-- 7&#45;&gt;13 -->
<g id="edge28" class="edge">
<title>7&#45;&gt;13</title>
<path fill="none" stroke="grey" stroke-width="2" d="M649.13,-1297.12C679.41,-1287.57 718.39,-1275.28 751.54,-1264.82"/>
<polygon fill="grey" stroke="grey" stroke-width="2" points="752.56,-1268.17 761.04,-1261.83 750.45,-1261.5 752.56,-1268.17"/>
</g>
<!-- 15 -->
<g id="node16" class="node">
<title>15</title>
<path fill="none" stroke="#5663d8" stroke-width="2" stroke-dasharray="5,2" d="M1032.88,-1260C1032.88,-1260 924.62,-1260 924.62,-1260 918.62,-1260 912.62,-1254 912.62,-1248 912.62,-1248 912.62,-1236 912.62,-1236 912.62,-1230 918.62,-1224 924.62,-1224 924.62,-1224 1032.88,-1224 1032.88,-1224 1038.88,-1224 1044.88,-1230 1044.88,-1236 1044.88,-1236 1044.88,-1248 1044.88,-1248 1044.88,-1254 1038.88,-1260 1032.88,-1260"/>
<text text-anchor="middle" x="978.75" y="-1238.88" font-family="sans" font-size="10.00">codingquarryPM_spores</text>
</g>
<!-- 7&#45;&gt;15 -->
<g id="edge30" class="edge">
<title>7&#45;&gt;15</title>
<path fill="none" stroke="grey" stroke-width="2" d="M649.36,-1305.01C707.38,-1295.68 805.65,-1279.33 899.16,-1260.87"/>
<polygon fill="grey" stroke="grey" stroke-width="2" points="899.63,-1264.34 908.76,-1258.96 898.27,-1257.48 899.63,-1264.34"/>
</g>
<!-- 19 -->
<g id="node20" class="node">
<title>19</title>
<path fill="none" stroke="#d85656" stroke-width="2" stroke-dasharray="5,2" d="M518.38,-1260C518.38,-1260 299.12,-1260 299.12,-1260 293.12,-1260 287.12,-1254 287.12,-1248 287.12,-1248 287.12,-1236 287.12,-1236 287.12,-1230 293.12,-1224 299.12,-1224 299.12,-1224 518.38,-1224 518.38,-1224 524.38,-1224 530.38,-1230 530.38,-1236 530.38,-1236 530.38,-1248 530.38,-1248 530.38,-1254 524.38,-1260 518.38,-1260"/>
<text text-anchor="middle" x="408.75" y="-1238.88" font-family="sans" font-size="10.00">transdecoder_preprocess_infection_transcripts</text>
</g>
<!-- 7&#45;&gt;19 -->
<g id="edge36" class="edge">
<title>7&#45;&gt;19</title>
<path fill="none" stroke="grey" stroke-width="2" d="M550.31,-1295.15C525.73,-1286.1 495.62,-1275.01 469.5,-1265.38"/>
<polygon fill="grey" stroke="grey" stroke-width="2" points="470.86,-1262.15 460.27,-1261.98 468.44,-1268.72 470.86,-1262.15"/>
</g>
<!-- 8&#45;&gt;6 -->
<g id="edge15" class="edge">
<title>8&#45;&gt;6</title>
<path fill="none" stroke="grey" stroke-width="2" d="M233.6,-503.34C226.68,-495.77 218.44,-486.75 210.76,-478.35"/>
<polygon fill="grey" stroke="grey" stroke-width="2" points="213.49,-476.15 204.16,-471.14 208.32,-480.88 213.49,-476.15"/>
</g>
<!-- 9 -->
<g id="node10" class="node">
<title>9</title>
<path fill="none" stroke="#56d8c9" stroke-width="2" d="M583.38,-612C583.38,-612 388.12,-612 388.12,-612 382.12,-612 376.12,-606 376.12,-600 376.12,-600 376.12,-588 376.12,-588 376.12,-582 382.12,-576 388.12,-576 388.12,-576 583.38,-576 583.38,-576 589.38,-576 595.38,-582 595.38,-588 595.38,-588 595.38,-600 595.38,-600 595.38,-606 589.38,-612 583.38,-612"/>
<text text-anchor="middle" x="485.75" y="-590.88" font-family="sans" font-size="10.00">merge_transdecoderSP_with_funannotate</text>
</g>
<!-- 9&#45;&gt;8 -->
<g id="edge17" class="edge">
<title>9&#45;&gt;8</title>
<path fill="none" stroke="grey" stroke-width="2" d="M425.28,-575.06C393.92,-565.76 355.37,-554.33 322.4,-544.55"/>
<polygon fill="grey" stroke="grey" stroke-width="2" points="323.55,-541.24 312.96,-541.75 321.56,-547.95 323.55,-541.24"/>
</g>
<!-- 10&#45;&gt;9 -->
<g id="edge18" class="edge">
<title>10&#45;&gt;9</title>
<path fill="none" stroke="grey" stroke-width="2" d="M710.78,-1079.23C703.75,-1052.5 691.75,-1000.25 691.75,-955 691.75,-955 691.75,-955 691.75,-737 691.75,-674.75 627.2,-637.7 570.36,-617.14"/>
<polygon fill="grey" stroke="grey" stroke-width="2" points="571.83,-613.94 561.24,-613.99 569.55,-620.56 571.83,-613.94"/>
</g>
<!-- 11&#45;&gt;10 -->
<g id="edge21" class="edge">
<title>11&#45;&gt;10</title>
<path fill="none" stroke="grey" stroke-width="2" d="M756.12,-1151.34C750.48,-1144.01 743.78,-1135.34 737.49,-1127.18"/>
<polygon fill="grey" stroke="grey" stroke-width="2" points="740.29,-1125.08 731.41,-1119.3 734.75,-1129.35 740.29,-1125.08"/>
</g>
<!-- 12&#45;&gt;11 -->
<g id="edge23" class="edge">
<title>12&#45;&gt;11</title>
<path fill="none" stroke="grey" stroke-width="2" d="M672.15,-1223.15C688.31,-1214.52 707.95,-1204.02 725.36,-1194.72"/>
<polygon fill="grey" stroke="grey" stroke-width="2" points="726.58,-1198.04 733.75,-1190.24 723.28,-1191.87 726.58,-1198.04"/>
</g>
<!-- 13&#45;&gt;11 -->
<g id="edge24" class="edge">
<title>13&#45;&gt;11</title>
<path fill="none" stroke="grey" stroke-width="2" d="M807.88,-1223.34C802.55,-1216.01 796.22,-1207.34 790.28,-1199.18"/>
<polygon fill="grey" stroke="grey" stroke-width="2" points="793.29,-1197.37 784.58,-1191.35 787.64,-1201.49 793.29,-1197.37"/>
</g>
<!-- 14 -->
<g id="node15" class="node">
<title>14</title>
<path fill="none" stroke="#56d87b" stroke-width="2" stroke-dasharray="5,2" d="M1022,-1332C1022,-1332 935.5,-1332 935.5,-1332 929.5,-1332 923.5,-1326 923.5,-1320 923.5,-1320 923.5,-1308 923.5,-1308 923.5,-1302 929.5,-1296 935.5,-1296 935.5,-1296 1022,-1296 1022,-1296 1028,-1296 1034,-1302 1034,-1308 1034,-1308 1034,-1320 1034,-1320 1034,-1326 1028,-1332 1022,-1332"/>
<text text-anchor="middle" x="978.75" y="-1310.88" font-family="sans" font-size="10.00">convert_gtf_to_gff3</text>
</g>
<!-- 14&#45;&gt;11 -->
<g id="edge26" class="edge">
<title>14&#45;&gt;11</title>
<path fill="none" stroke="grey" stroke-width="2" d="M1017.82,-1295.19C1031.78,-1286.67 1045.98,-1275.01 1053.75,-1260 1061.11,-1245.79 1063.97,-1236.31 1053.75,-1224 1027.13,-1191.95 915.45,-1179.18 840.32,-1174.16"/>
<polygon fill="grey" stroke="grey" stroke-width="2" points="840.9,-1170.69 830.7,-1173.55 840.46,-1177.67 840.9,-1170.69"/>
</g>
<!-- 14&#45;&gt;13 -->
<g id="edge29" class="edge">
<title>14&#45;&gt;13</title>
<path fill="none" stroke="grey" stroke-width="2" d="M938.47,-1295.15C918.58,-1286.34 894.35,-1275.61 873.05,-1266.17"/>
<polygon fill="grey" stroke="grey" stroke-width="2" points="874.56,-1263.01 864,-1262.16 871.72,-1269.41 874.56,-1263.01"/>
</g>
<!-- 14&#45;&gt;15 -->
<g id="edge31" class="edge">
<title>14&#45;&gt;15</title>
<path fill="none" stroke="grey" stroke-width="2" d="M978.75,-1295.34C978.75,-1288.75 978.75,-1281.08 978.75,-1273.67"/>
<polygon fill="grey" stroke="grey" stroke-width="2" points="982.25,-1273.93 978.75,-1263.93 975.25,-1273.93 982.25,-1273.93"/>
</g>
<!-- 15&#45;&gt;11 -->
<g id="edge25" class="edge">
<title>15&#45;&gt;11</title>
<path fill="none" stroke="grey" stroke-width="2" d="M925.2,-1223.06C897.79,-1213.88 864.19,-1202.63 835.25,-1192.94"/>
<polygon fill="grey" stroke="grey" stroke-width="2" points="836.63,-1189.71 826.03,-1189.85 834.4,-1196.35 836.63,-1189.71"/>
</g>
<!-- 16 -->
<g id="node17" class="node">
<title>16</title>
<path fill="none" stroke="#56d89a" stroke-width="2" stroke-dasharray="5,2" d="M587.5,-684C587.5,-684 384,-684 384,-684 378,-684 372,-678 372,-672 372,-672 372,-660 372,-660 372,-654 378,-648 384,-648 384,-648 587.5,-648 587.5,-648 593.5,-648 599.5,-654 599.5,-660 599.5,-660 599.5,-672 599.5,-672 599.5,-678 593.5,-684 587.5,-684"/>
<text text-anchor="middle" x="485.75" y="-662.88" font-family="sans" font-size="10.00">extract_transdecoder_SP_noTM_genes_gff3</text>
</g>
<!-- 16&#45;&gt;9 -->
<g id="edge19" class="edge">
<title>16&#45;&gt;9</title>
<path fill="none" stroke="grey" stroke-width="2" d="M485.75,-647.34C485.75,-640.75 485.75,-633.08 485.75,-625.67"/>
<polygon fill="grey" stroke="grey" stroke-width="2" points="489.25,-625.93 485.75,-615.93 482.25,-625.93 489.25,-625.93"/>
</g>
<!-- 17 -->
<g id="node18" class="node">
<title>17</title>
<path fill="none" stroke="#d86656" stroke-width="2" stroke-dasharray="5,2" d="M506.75,-1188C506.75,-1188 298.75,-1188 298.75,-1188 292.75,-1188 286.75,-1182 286.75,-1176 286.75,-1176 286.75,-1164 286.75,-1164 286.75,-1158 292.75,-1152 298.75,-1152 298.75,-1152 506.75,-1152 506.75,-1152 512.75,-1152 518.75,-1158 518.75,-1164 518.75,-1164 518.75,-1176 518.75,-1176 518.75,-1182 512.75,-1188 506.75,-1188"/>
<text text-anchor="middle" x="402.75" y="-1166.88" font-family="sans" font-size="10.00">transdecoder_generate_genome_based_gff3</text>
</g>
<!-- 17&#45;&gt;16 -->
<g id="edge32" class="edge">
<title>17&#45;&gt;16</title>
<path fill="none" stroke="grey" stroke-width="2" d="M491.23,-1151.07C555.32,-1132.32 630.75,-1095.67 630.75,-1027 630.75,-1027 630.75,-1027 630.75,-809 630.75,-754.89 578.58,-714.6 536.82,-691.02"/>
<polygon fill="grey" stroke="grey" stroke-width="2" points="538.49,-687.95 528.03,-686.26 535.16,-694.1 538.49,-687.95"/>
</g>
<!-- 24 -->
<g id="node25" class="node">
<title>24</title>
<path fill="none" stroke="#d8a456" stroke-width="2" stroke-dasharray="5,2" d="M478,-1116C478,-1116 319.5,-1116 319.5,-1116 313.5,-1116 307.5,-1110 307.5,-1104 307.5,-1104 307.5,-1092 307.5,-1092 307.5,-1086 313.5,-1080 319.5,-1080 319.5,-1080 478,-1080 478,-1080 484,-1080 490,-1086 490,-1092 490,-1092 490,-1104 490,-1104 490,-1110 484,-1116 478,-1116"/>
<text text-anchor="middle" x="398.75" y="-1094.88" font-family="sans" font-size="10.00">filter_transdecoder_complete_orfs</text>
</g>
<!-- 17&#45;&gt;24 -->
<g id="edge46" class="edge">
<title>17&#45;&gt;24</title>
<path fill="none" stroke="grey" stroke-width="2" d="M401.74,-1151.34C401.36,-1144.75 400.93,-1137.08 400.5,-1129.67"/>
<polygon fill="grey" stroke="grey" stroke-width="2" points="404.01,-1129.71 399.95,-1119.92 397.02,-1130.11 404.01,-1129.71"/>
</g>
<!-- 18 -->
<g id="node19" class="node">
<title>18</title>
<path fill="none" stroke="#d8c356" stroke-width="2" stroke-dasharray="5,2" d="M256.62,-1260C256.62,-1260 200.88,-1260 200.88,-1260 194.88,-1260 188.88,-1254 188.88,-1248 188.88,-1248 188.88,-1236 188.88,-1236 188.88,-1230 194.88,-1224 200.88,-1224 200.88,-1224 256.62,-1224 256.62,-1224 262.62,-1224 268.62,-1230 268.62,-1236 268.62,-1236 268.62,-1248 268.62,-1248 268.62,-1254 262.62,-1260 256.62,-1260"/>
<text text-anchor="middle" x="228.75" y="-1238.88" font-family="sans" font-size="10.00">transdecoder</text>
</g>
<!-- 18&#45;&gt;17 -->
<g id="edge34" class="edge">
<title>18&#45;&gt;17</title>
<path fill="none" stroke="grey" stroke-width="2" d="M269.55,-1224.59C292.42,-1215.39 321.3,-1203.77 346.32,-1193.7"/>
<polygon fill="grey" stroke="grey" stroke-width="2" points="347.46,-1197.01 355.43,-1190.03 344.85,-1190.52 347.46,-1197.01"/>
</g>
<!-- 19&#45;&gt;17 -->
<g id="edge35" class="edge">
<title>19&#45;&gt;17</title>
<path fill="none" stroke="grey" stroke-width="2" d="M407.24,-1223.34C406.67,-1216.75 406.01,-1209.08 405.38,-1201.67"/>
<polygon fill="grey" stroke="grey" stroke-width="2" points="408.88,-1201.58 404.54,-1191.92 401.91,-1202.18 408.88,-1201.58"/>
</g>
<!-- 20 -->
<g id="node21" class="node">
<title>20</title>
<path fill="none" stroke="#bed856" stroke-width="2" stroke-dasharray="5,2" d="M539.25,-756C539.25,-756 304.25,-756 304.25,-756 298.25,-756 292.25,-750 292.25,-744 292.25,-744 292.25,-732 292.25,-732 292.25,-726 298.25,-720 304.25,-720 304.25,-720 539.25,-720 539.25,-720 545.25,-720 551.25,-726 551.25,-732 551.25,-732 551.25,-744 551.25,-744 551.25,-750 545.25,-756 539.25,-756"/>
<text text-anchor="middle" x="421.75" y="-734.88" font-family="sans" font-size="10.00">filter_transdecoder_SP_for_absence_of_TM_helice</text>
</g>
<!-- 20&#45;&gt;16 -->
<g id="edge33" class="edge">
<title>20&#45;&gt;16</title>
<path fill="none" stroke="grey" stroke-width="2" d="M437.9,-719.34C444.82,-711.77 453.06,-702.75 460.74,-694.35"/>
<polygon fill="grey" stroke="grey" stroke-width="2" points="463.18,-696.88 467.34,-687.14 458.01,-692.15 463.18,-696.88"/>
</g>
<!-- 21 -->
<g id="node22" class="node">
<title>21</title>
<path fill="none" stroke="#d8b456" stroke-width="2" stroke-dasharray="5,2" d="M421.75,-828C421.75,-828 321.75,-828 321.75,-828 315.75,-828 309.75,-822 309.75,-816 309.75,-816 309.75,-804 309.75,-804 309.75,-798 315.75,-792 321.75,-792 321.75,-792 421.75,-792 421.75,-792 427.75,-792 433.75,-798 433.75,-804 433.75,-804 433.75,-816 433.75,-816 433.75,-822 427.75,-828 421.75,-828"/>
<text text-anchor="middle" x="371.75" y="-806.88" font-family="sans" font-size="10.00">tmmhm_transdecoder</text>
</g>
<!-- 21&#45;&gt;20 -->
<g id="edge37" class="edge">
<title>21&#45;&gt;20</title>
<path fill="none" stroke="grey" stroke-width="2" d="M384.37,-791.34C389.54,-784.1 395.66,-775.53 401.43,-767.45"/>
<polygon fill="grey" stroke="grey" stroke-width="2" points="404.24,-769.54 407.2,-759.37 398.54,-765.47 404.24,-769.54"/>
</g>
<!-- 22 -->
<g id="node23" class="node">
<title>22</title>
<path fill="none" stroke="#d89556" stroke-width="2" stroke-dasharray="5,2" d="M591,-900C591,-900 294.5,-900 294.5,-900 288.5,-900 282.5,-894 282.5,-888 282.5,-888 282.5,-876 282.5,-876 282.5,-870 288.5,-864 294.5,-864 294.5,-864 591,-864 591,-864 597,-864 603,-870 603,-876 603,-876 603,-888 603,-888 603,-894 597,-900 591,-900"/>
<text text-anchor="middle" x="442.75" y="-878.88" font-family="sans" font-size="10.00">combine_signalp_unions_mature_proteins_fasta_transdecoder</text>
</g>
<!-- 22&#45;&gt;21 -->
<g id="edge40" class="edge">
<title>22&#45;&gt;21</title>
<path fill="none" stroke="grey" stroke-width="2" d="M424.83,-863.34C416.99,-855.6 407.61,-846.36 398.94,-837.81"/>
<polygon fill="grey" stroke="grey" stroke-width="2" points="401.64,-835.56 392.06,-831.03 396.73,-840.54 401.64,-835.56"/>
</g>
<!-- 28 -->
<g id="node29" class="node">
<title>28</title>
<path fill="none" stroke="#70d856" stroke-width="2" stroke-dasharray="5,2" d="M563.38,-828C563.38,-828 464.12,-828 464.12,-828 458.12,-828 452.12,-822 452.12,-816 452.12,-816 452.12,-804 452.12,-804 452.12,-798 458.12,-792 464.12,-792 464.12,-792 563.38,-792 563.38,-792 569.38,-792 575.38,-798 575.38,-804 575.38,-804 575.38,-816 575.38,-816 575.38,-822 569.38,-828 563.38,-828"/>
<text text-anchor="middle" x="513.75" y="-806.88" font-family="sans" font-size="10.00">phobius_transdecoder</text>
</g>
<!-- 22&#45;&gt;28 -->
<g id="edge52" class="edge">
<title>22&#45;&gt;28</title>
<path fill="none" stroke="grey" stroke-width="2" d="M460.67,-863.34C468.51,-855.6 477.89,-846.36 486.56,-837.81"/>
<polygon fill="grey" stroke="grey" stroke-width="2" points="488.77,-840.54 493.44,-831.03 483.86,-835.56 488.77,-840.54"/>
</g>
<!-- 23 -->
<g id="node24" class="node">
<title>23</title>
<path fill="none" stroke="#61d856" stroke-width="2" stroke-dasharray="5,2" d="M590.88,-1044C590.88,-1044 488.62,-1044 488.62,-1044 482.62,-1044 476.62,-1038 476.62,-1032 476.62,-1032 476.62,-1020 476.62,-1020 476.62,-1014 482.62,-1008 488.62,-1008 488.62,-1008 590.88,-1008 590.88,-1008 596.88,-1008 602.88,-1014 602.88,-1020 602.88,-1020 602.88,-1032 602.88,-1032 602.88,-1038 596.88,-1044 590.88,-1044"/>
<text text-anchor="middle" x="539.75" y="-1022.88" font-family="sans" font-size="10.00">signalp3_transdecoder</text>
</g>
<!-- 23&#45;&gt;22 -->
<g id="edge41" class="edge">
<title>23&#45;&gt;22</title>
<path fill="none" stroke="grey" stroke-width="2" d="M528.79,-1007.01C517.59,-988.84 499.52,-960.1 482.75,-936 477.05,-927.8 470.62,-919.09 464.62,-911.14"/>
<polygon fill="grey" stroke="grey" stroke-width="2" points="467.49,-909.13 458.64,-903.3 461.92,-913.38 467.49,-909.13"/>
</g>
<!-- 27 -->
<g id="node28" class="node">
<title>27</title>
<path fill="none" stroke="#80d856" stroke-width="2" stroke-dasharray="5,2" d="M446.12,-972C446.12,-972 291.38,-972 291.38,-972 285.38,-972 279.38,-966 279.38,-960 279.38,-960 279.38,-948 279.38,-948 279.38,-942 285.38,-936 291.38,-936 291.38,-936 446.12,-936 446.12,-936 452.12,-936 458.12,-942 458.12,-948 458.12,-948 458.12,-960 458.12,-960 458.12,-966 452.12,-972 446.12,-972"/>
<text text-anchor="middle" x="368.75" y="-950.88" font-family="sans" font-size="10.00">take_signalp_union_transdecoder</text>
</g>
<!-- 23&#45;&gt;27 -->
<g id="edge49" class="edge">
<title>23&#45;&gt;27</title>
<path fill="none" stroke="grey" stroke-width="2" d="M496.16,-1007.15C474.33,-998.22 447.67,-987.31 424.38,-977.77"/>
<polygon fill="grey" stroke="grey" stroke-width="2" points="425.94,-974.63 415.36,-974.08 423.29,-981.11 425.94,-974.63"/>
</g>
<!-- 24&#45;&gt;23 -->
<g id="edge45" class="edge">
<title>24&#45;&gt;23</title>
<path fill="none" stroke="grey" stroke-width="2" d="M434.7,-1079.15C452.18,-1070.47 473.43,-1059.92 492.23,-1050.59"/>
<polygon fill="grey" stroke="grey" stroke-width="2" points="493.76,-1053.74 501.16,-1046.16 490.65,-1047.47 493.76,-1053.74"/>
</g>
<!-- 25 -->
<g id="node26" class="node">
<title>25</title>
<path fill="none" stroke="#56d86b" stroke-width="2" stroke-dasharray="5,2" d="M446.88,-1044C446.88,-1044 344.62,-1044 344.62,-1044 338.62,-1044 332.62,-1038 332.62,-1032 332.62,-1032 332.62,-1020 332.62,-1020 332.62,-1014 338.62,-1008 344.62,-1008 344.62,-1008 446.88,-1008 446.88,-1008 452.88,-1008 458.88,-1014 458.88,-1020 458.88,-1020 458.88,-1032 458.88,-1032 458.88,-1038 452.88,-1044 446.88,-1044"/>
<text text-anchor="middle" x="395.75" y="-1022.88" font-family="sans" font-size="10.00">signalp4_transdecoder</text>
</g>
<!-- 24&#45;&gt;25 -->
<g id="edge47" class="edge">
<title>24&#45;&gt;25</title>
<path fill="none" stroke="grey" stroke-width="2" d="M397.99,-1079.34C397.71,-1072.75 397.38,-1065.08 397.06,-1057.67"/>
<polygon fill="grey" stroke="grey" stroke-width="2" points="400.57,-1057.77 396.65,-1047.93 393.58,-1058.07 400.57,-1057.77"/>
</g>
<!-- 26 -->
<g id="node27" class="node">
<title>26</title>
<path fill="none" stroke="#d87556" stroke-width="2" stroke-dasharray="5,2" d="M302.88,-1044C302.88,-1044 200.62,-1044 200.62,-1044 194.62,-1044 188.62,-1038 188.62,-1032 188.62,-1032 188.62,-1020 188.62,-1020 188.62,-1014 194.62,-1008 200.62,-1008 200.62,-1008 302.88,-1008 302.88,-1008 308.88,-1008 314.88,-1014 314.88,-1020 314.88,-1020 314.88,-1032 314.88,-1032 314.88,-1038 308.88,-1044 302.88,-1044"/>
<text text-anchor="middle" x="251.75" y="-1022.88" font-family="sans" font-size="10.00">signalp6_transdecoder</text>
</g>
<!-- 24&#45;&gt;26 -->
<g id="edge48" class="edge">
<title>24&#45;&gt;26</title>
<path fill="none" stroke="grey" stroke-width="2" d="M361.28,-1079.15C342.94,-1070.43 320.64,-1059.81 300.96,-1050.43"/>
<polygon fill="grey" stroke="grey" stroke-width="2" points="302.68,-1047.37 292.14,-1046.24 299.67,-1053.69 302.68,-1047.37"/>
</g>
<!-- 25&#45;&gt;22 -->
<g id="edge42" class="edge">
<title>25&#45;&gt;22</title>
<path fill="none" stroke="grey" stroke-width="2" d="M432.04,-1007.23C445.5,-998.6 459.3,-986.85 466.75,-972 476.19,-953.17 469.58,-930.18 460.93,-912.28"/>
<polygon fill="grey" stroke="grey" stroke-width="2" points="464.02,-910.64 456.21,-903.48 457.85,-913.95 464.02,-910.64"/>
</g>
<!-- 25&#45;&gt;27 -->
<g id="edge50" class="edge">
<title>25&#45;&gt;27</title>
<path fill="none" stroke="grey" stroke-width="2" d="M388.94,-1007.34C386.3,-1000.51 383.21,-992.5 380.26,-984.83"/>
<polygon fill="grey" stroke="grey" stroke-width="2" points="383.61,-983.8 376.74,-975.73 377.08,-986.32 383.61,-983.8"/>
</g>
<!-- 26&#45;&gt;22 -->
<g id="edge43" class="edge">
<title>26&#45;&gt;22</title>
<path fill="none" stroke="grey" stroke-width="2" d="M250.58,-1007.27C250.28,-987.41 252.94,-955.46 270.75,-936 282.55,-923.11 297.4,-913.32 313.41,-905.89"/>
<polygon fill="grey" stroke="grey" stroke-width="2" points="314.6,-909.19 322.45,-902.07 311.88,-902.74 314.6,-909.19"/>
</g>
<!-- 26&#45;&gt;27 -->
<g id="edge51" class="edge">
<title>26&#45;&gt;27</title>
<path fill="none" stroke="grey" stroke-width="2" d="M281.58,-1007.15C295.74,-998.68 312.89,-988.42 328.21,-979.25"/>
<polygon fill="grey" stroke="grey" stroke-width="2" points="329.6,-982.5 336.38,-974.37 326,-976.5 329.6,-982.5"/>
</g>
<!-- 27&#45;&gt;20 -->
<g id="edge39" class="edge">
<title>27&#45;&gt;20</title>
<path fill="none" stroke="grey" stroke-width="2" d="M314.57,-935.09C298.59,-927 282.93,-915.63 273.75,-900 265.65,-886.2 270.9,-879.74 273.75,-864 279.85,-830.37 277.25,-816.81 300.75,-792 312.74,-779.34 328.29,-769.52 344.22,-761.98"/>
<polygon fill="grey" stroke="grey" stroke-width="2" points="345.31,-765.32 353.07,-758.1 342.5,-758.91 345.31,-765.32"/>
</g>
<!-- 27&#45;&gt;22 -->
<g id="edge44" class="edge">
<title>27&#45;&gt;22</title>
<path fill="none" stroke="grey" stroke-width="2" d="M387.42,-935.34C395.6,-927.6 405.37,-918.36 414.41,-909.81"/>
<polygon fill="grey" stroke="grey" stroke-width="2" points="416.77,-912.4 421.63,-902.98 411.96,-907.31 416.77,-912.4"/>
</g>
<!-- 28&#45;&gt;20 -->
<g id="edge38" class="edge">
<title>28&#45;&gt;20</title>
<path fill="none" stroke="grey" stroke-width="2" d="M490.53,-791.34C479.94,-783.27 467.18,-773.57 455.55,-764.72"/>
<polygon fill="grey" stroke="grey" stroke-width="2" points="457.76,-762 447.69,-758.73 453.53,-767.58 457.76,-762"/>
</g>
<!-- 29&#45;&gt;3 -->
<g id="edge8" class="edge">
<title>29&#45;&gt;3</title>
<path fill="none" stroke="grey" stroke-width="2" d="M168.72,-359.22C160.31,-349.51 150.72,-336.87 144.75,-324 136.21,-305.59 131.45,-283.24 128.84,-265.55"/>
<polygon fill="grey" stroke="grey" stroke-width="2" points="132.33,-265.27 127.58,-255.8 125.39,-266.16 132.33,-265.27"/>
</g>
<!-- 29&#45;&gt;4 -->
<g id="edge11" class="edge">
<title>29&#45;&gt;4</title>
<path fill="none" stroke="grey" stroke-width="2" d="M191.55,-359.34C193.77,-352.59 196.36,-344.69 198.86,-337.11"/>
<polygon fill="grey" stroke="grey" stroke-width="2" points="202.13,-338.37 201.92,-327.78 195.48,-336.19 202.13,-338.37"/>
</g>
<!-- 30&#45;&gt;3 -->
<g id="edge9" class="edge">
<title>30&#45;&gt;3</title>
<path fill="none" stroke="grey" stroke-width="2" d="M269.83,-359.24C278.28,-339.94 287.54,-309.05 272.75,-288 263.92,-275.43 251.8,-265.82 238.28,-258.49"/>
<polygon fill="grey" stroke="grey" stroke-width="2" points="239.88,-255.38 229.36,-254.17 236.83,-261.68 239.88,-255.38"/>
</g>
<!-- 30&#45;&gt;4 -->
<g id="edge12" class="edge">
<title>30&#45;&gt;4</title>
<path fill="none" stroke="grey" stroke-width="2" d="M247.63,-359.34C242.19,-352.01 235.74,-343.34 229.68,-335.18"/>
<polygon fill="grey" stroke="grey" stroke-width="2" points="232.63,-333.27 223.85,-327.33 227.01,-337.45 232.63,-333.27"/>
</g>
<!-- 31&#45;&gt;1 -->
<g id="edge3" class="edge">
<title>31&#45;&gt;1</title>
<path fill="none" stroke="grey" stroke-width="2" d="M198.75,-143.34C198.75,-136.75 198.75,-129.08 198.75,-121.67"/>
<polygon fill="grey" stroke="grey" stroke-width="2" points="202.25,-121.93 198.75,-111.93 195.25,-121.93 202.25,-121.93"/>
</g>
</g>
</svg>
